<?xml version="1.0" encoding="UTF-8"?><svg xmlns="http://www.w3.org/2000/svg" viewBox="0 0 413.8 651.84"><defs><style>.d{fill:#c53817;}.e{fill:#de842b;}</style></defs><g id="a"/><g id="b"><g id="c"><g><path class="e" d="M356.09,239.21c-.12-5.32-2.73-10.65-5.29-15.5-12.94-24.54-27.87-99.3-60.51-104.61-28.39-4.62-66.27,55.59-88.04,71.61,.13-18.84,11.81-35.61,24.74-49.31,12.93-13.7,27.82-26.01,37.14-42.38,2.37-4.17,4.4-9.1,2.91-13.66-1.16-3.57-4.24-6.12-7.18-8.46-11.24-8.93-22.65-17.66-34.22-26.17-1.67-1.23-3.51-2.5-5.57-2.45-2.86,.08-4.96,2.61-6.65,4.91l-33.38,45.43c-3.02-18.06,.2-37.1,9-53.16,2.66-4.85,5.9-9.78,5.87-15.31-.05-9.17-8.96-15.73-17.57-18.92-23.6-8.73-33.04-20.68-53.58,1.06-13.47,14.26-27.07,28.7-36.66,45.81-9.59,17.11-14.89,37.43-10.46,56.53,27.01,2.11,49.45,29.13,46.57,56.06-2.89,1.43-5.77,2.87-8.66,4.3-16.66-2.92-31.92-12.38-48.82-13.31-47.65-2.59-68.39,95.99-13.98,107.54,16.15,3.43,32.88,.68,49.39,.46,16.51-.22,34.47,2.84,45.66,14.98,1.67,1.81,3.19,3.89,3.6,6.32,1.25,7.37-7.62,12.04-14.91,13.68-39.73,8.9-79.91-.04-113.64-20.87-20.96,50.54-34.69,122.25-3.67,171.55,37.8,60.08,132.43,73.45,196.93,66.62,3.27-.35,6.53-.76,9.79-1.26,38-5.74,76.33-23.6,112.89-35.46,23.51-7.62,48.33-16.1,64.11-35.13,15.78-19.03,17.15-52.13-3.68-65.43-5.7,6.49-13.44,12.16-22.08,11.85-8.63-.32-16.93-9.28-13.8-17.33,3.8-9.78,17.68-8.81,27.43-12.67,11.91-4.72,18.37-18.33,18.51-31.14,.22-19.13-11.97-47.45-22.05-63.67-4.48-7.21-12.87-12.7-21.22-11.14-5.39,1.01-9.83,4.67-14.14,8.06-17.31,13.66-36.48,24.96-56.81,33.5-2.85,1.2-6.15,2.34-8.93,.98-3.65-1.78-4.21-7.11-2.19-10.63,2.02-3.52,5.75-5.65,9.3-7.61,16.03-8.85,32.06-17.7,48.09-26.56,6.31-3.48,13.17-7.63,15.17-14.55,.44-1.51,.61-3.04,.58-4.56Zm-223.64,198.85c-6,2.95-13.16,.59-19.27-2.11-15.59-6.89-30.23-15.92-43.39-26.74-11.74-9.66-23.17-25.15-16.45-38.79,5.87-11.91,22.39-14.13,35.1-10.31,15.69,4.72,76.43,61.98,44.01,77.95Zm74.25-195.89c2.17-13.36,10.78-25.8,24.04-30.04,20.18-6.45,41.95,1.16,61.39,9.57,6.56,2.84,13.75,6.5,15.93,13.3,3.19,9.92-6.08,19.24-14.81,24.92-20.25,13.18-54.44,34.78-76.69,14.14-8.83-8.19-11.73-20.37-9.86-31.88Z"/><path class="d" d="M331.07,388.61c-13.03,14.73-26.25,28.97-41.41,41.58-14.94,12.43-31.06,23.41-48.14,32.69-8.77,4.77-17.83,8.85-26.9,12.99-2.5-14.02-4.65-28.1-6.37-42.26-3.67-30.18-5.95-60.53-7.99-90.87,5.46-4.32,10.92-8.66,16.31-13.09,5.9-4.85,12.03-9.58,17.62-14.78,3.36-3.12-.86-8.23-4.56-5.48-6.14,4.55-11.9,9.71-17.75,14.63-4.1,3.44-8.14,6.94-12.17,10.44-.2-2.99-.39-5.97-.59-8.96-2.38-36.42-4.73-72.86-8.75-109.14-2.01-18.14-4.42-36.27-7.5-54.28,.85-.03,1.72-.42,2.4-1.36,7.86-10.78,13.75-23.87,15.7-37.15,.57-3.87-5.74-5.51-6.78-1.62-1.65,6.16-3.32,12.29-5.76,18.21-1.99,4.83-4.36,9.6-6.96,14.16-2.72-14.89-5.9-29.69-9.76-44.33-1.13-4.31-2.35-8.59-3.6-12.86-1.2-4.1-7.82-3.16-6.7,1.11,9.22,34.97,15.54,70.63,19.82,106.52,2.29,19.19,4.03,38.43,5.5,57.69-14.75-5.89-24.75-18.56-36.1-29.18-12.67-11.85-27.92-20.36-44.9-24.18-9.48-2.14-19.22-2.69-28.9-1.87-4.23,.36-3.08,6.73,1.07,6.46,16.64-1.05,33.76,2.82,48.41,10.77,14.58,7.92,24.8,20.45,36.82,31.5,6.57,6.04,14,11.54,22.62,14.21,.55,.17,1.07,.22,1.56,.17,1.06,14.67,1.98,29.35,2.85,44.02,1.09,18.3,2.07,36.6,3.17,54.9-24.77-22.38-55.92-37.94-89.03-42.86-4.35-.65-4.91,5.91-.7,6.72,32.18,6.21,62.42,20.76,86.48,43.16,1.07,1,2.45,1.52,3.77,1.21,.96,15.32,2.03,30.64,3.37,45.93,1.57,18,3.17,36.05,5.59,53.96,.16,1.16,.31,2.32,.47,3.47-34.35-.57-68.46-6.93-100.58-19.17-9.43-3.59-18.72-7.63-27.8-12.03-4.01-1.94-6.22,4.37-2.43,6.38,31.84,16.87,67.34,27.11,103.11,31.05,9.56,1.05,19.16,1.58,28.77,1.66,1.87,13.78,4.94,26.44,5.61,40.36,1.72,35.92,7.06,71.85,17.02,106.44,1.34,4.64,2.93,8.82,5.23,13.08,1.53,2.84,5.26,3.97,8.15,2.72,3.25-1.41,4.26-4.35,3.83-7.69-1.16-8.93-4.27-17.49-6.47-26.23-2.14-8.5-4.01-17.07-5.63-25.69-3.21-17.13-5.26-34.03-6.72-51.4-1.58-18.81-5.91-38.67-9.39-57.18,18.27-6.68,35.69-16.6,51.89-27.23,16.77-11.01,32.45-23.69,46.71-37.8,7.99-7.91,15.75-16.21,22.43-25.26,2.85-3.86-2.89-7.69-5.93-4.24Z"/><path class="d" d="M28.91,342.47c-10.5,25.69-11.37,55.05-1.84,81.19,.42,1.15,2.11,.34,1.72-.79-8.97-25.84-8.59-54.38,1.65-79.82,.39-.98-1.13-1.55-1.52-.58Z"/><path class="d" d="M41.63,413.48c-5.09-5.96-6.84-14.34-3.64-21.65,.43-.98-1.1-1.54-1.54-.59-3.5,7.54-2.25,17.45,3.79,23.39,.81,.8,2.16-.25,1.39-1.16Z"/><path class="d" d="M44.27,218.49c-3.12,10-3.78,20.71-1.69,30.99,.23,1.15,2.01,.87,1.81-.3-1.78-10.03-1.34-20.28,1.5-30.08,.31-1.06-1.28-1.69-1.62-.62Z"/><path class="d" d="M60.52,235.86c-2.77,5.49-2.92,12.05-.28,17.61,.55,1.16,2.34,.33,1.81-.84-2.3-5.08-2.3-11.11,.1-16.15,.49-1.02-1.13-1.61-1.63-.62Z"/><path class="d" d="M294.93,197.11c-5.71-13.57-11.67-27.04-17.58-40.52-.43-.98-1.93-.29-1.51,.7,5.76,13.55,11.47,27.13,17.43,40.59,.48,1.08,2.12,.32,1.66-.77Z"/><path class="d" d="M305.12,178.65c-4.83-10.46-10.11-20.72-15.2-31.05-.47-.95-1.97-.27-1.5,.7,4.99,10.38,9.81,20.86,15.07,31.11,.53,1.03,2.13,.3,1.64-.76Z"/><path class="d" d="M132.71,59.36c-12.21,6.43-22.05,17.83-25.87,31.19-.35,1.23,1.47,1.96,1.88,.72,4.18-12.83,12.77-23.85,24.71-30.35,.96-.52,.26-2.07-.72-1.56Z"/><path class="d" d="M131.82,76.38c-2.32,3.63-4.65,7.25-6.94,10.89-2.29,3.64-4.69,7.24-6.83,10.97-.61,1.07,.87,2.19,1.59,1.13,2.42-3.56,4.6-7.29,6.87-10.95,2.27-3.66,4.51-7.35,6.76-11.03,.59-.96-.82-1.99-1.44-1.03Z"/><path class="d" d="M357.21,274.03c-.77-.75-2.08,.31-1.31,1.09,8.35,8.31,13.41,19.02,15.06,30.64,.17,1.19,1.96,.88,1.83-.3-1.26-11.87-7.06-23.14-15.59-31.42Z"/><path class="d" d="M369.4,326.14c-.2-1.16-1.99-.87-1.81,.3,.69,4.36,1.37,8.72,2.15,13.07,.21,1.19,2.03,.89,1.85-.31-.67-4.37-1.43-8.71-2.19-13.06Z"/><path class="d" d="M227.52,366.44c-1.24,23.08,1.8,47.49,10.66,68.97,.46,1.12,2.06,.33,1.69-.78-3.69-11.01-6.94-21.97-8.74-33.47-1.78-11.41-2.43-23.01-1.95-34.55,.04-1.07-1.6-1.25-1.66-.17Z"/><path class="d" d="M243.95,383.92c-3.18,9.86-2.11,21.44,3.84,30.1,.6,.87,2.11-.07,1.58-1-4.98-8.72-6.82-18.75-3.88-28.52,.3-1.01-1.21-1.6-1.54-.59Z"/></g></g></g></svg>