<?xml version="1.0" encoding="UTF-8"?><svg xmlns="http://www.w3.org/2000/svg" viewBox="0 0 414.08 656.36"><defs><style>.d{fill:#c53817;}.e{fill:#de842b;}</style></defs><g id="a"/><g id="b"><g id="c"><g><path class="e" d="M378.03,271.69c.78-5.26-.89-10.96-2.59-16.17-8.6-26.38-10.65-102.59-41.93-113.35-27.2-9.36-74.72,43.57-98.89,55.67,3.32-18.55,17.67-33.1,32.73-44.41,15.07-11.31,31.82-20.92,43.78-35.48,3.05-3.71,5.88-8.22,5.18-12.97-.54-3.71-3.14-6.75-5.64-9.55-9.57-10.71-19.33-21.24-29.29-31.58-1.43-1.49-3.03-3.06-5.08-3.36-2.83-.41-5.33,1.73-7.38,3.71l-40.59,39.12c.08-18.31,6.48-36.53,17.87-50.87,3.44-4.33,7.47-8.64,8.38-14.1,1.5-9.04-6.17-17.02-14.12-21.62-21.78-12.6-29.06-25.98-52.98-8.03-15.69,11.77-31.54,23.7-43.89,38.94-12.34,15.24-21.01,34.37-19.88,53.94,26.26,6.65,43.81,37.08,36.4,63.14-3.09,.92-6.18,1.85-9.26,2.77-15.92-5.7-29.36-17.61-45.86-21.38-46.53-10.63-83.66,83.02-31.99,103.62,15.34,6.11,32.29,6.24,48.6,8.82,16.31,2.58,33.49,8.63,42.46,22.5,1.34,2.06,2.49,4.38,2.48,6.83-.02,7.47-9.55,10.58-17.01,10.95-40.66,2.04-78.75-13.57-108.46-39.81-29.21,46.26-54.89,114.61-32.67,168.45,27.08,65.61,118.08,94.82,182.81,99.01,3.28,.21,6.57,.35,9.86,.42,38.43,.77,79.22-10.34,117.27-15.83,24.46-3.53,50.36-7.69,69.13-23.77,18.77-16.08,25.73-48.47,7.45-65.11-6.72,5.43-15.31,9.71-23.76,7.94-8.45-1.77-15.11-12.01-10.66-19.42,5.4-8.99,18.91-5.69,29.18-7.84,12.54-2.63,21.2-14.95,23.52-27.55,3.46-18.82-3.76-48.79-10.95-66.49-3.2-7.87-10.54-14.69-19.03-14.57-5.48,.08-10.48,2.94-15.3,5.55-19.38,10.53-40.18,18.42-61.66,23.39-3.01,.7-6.46,1.26-8.97-.54-3.3-2.37-2.95-7.72-.36-10.85,2.59-3.13,6.62-4.6,10.46-5.93,17.3-6.01,34.6-12.02,51.9-18.03,6.8-2.36,14.27-5.29,17.42-11.77,.69-1.42,1.12-2.89,1.34-4.4ZM123.95,429.79c-6.41,1.9-13.07-1.64-18.64-5.34-14.19-9.43-27.1-20.81-38.24-33.71-9.94-11.5-18.58-28.71-9.65-41.01,7.8-10.75,24.46-10.14,36.34-4.22,14.66,7.31,64.83,74.03,30.18,84.28Zm106.34-180.49c4.4-12.8,14.99-23.61,28.78-25.54,20.98-2.94,41.15,8.25,58.89,19.82,5.98,3.9,12.45,8.73,13.45,15.8,1.46,10.32-9.25,17.93-18.82,22.05-22.19,9.56-59.54,25.06-77.97,.95-7.31-9.56-8.12-22.07-4.32-33.09Z"/><path class="d" d="M328.07,414.69c-15.33,12.32-30.78,24.1-47.85,33.96-16.83,9.72-34.58,17.81-52.98,24.06-9.45,3.21-19.07,5.7-28.71,8.24-.1-14.24,.18-28.48,.88-42.73,1.49-30.36,4.38-60.66,7.52-90.91,6.12-3.34,12.23-6.68,18.29-10.14,6.64-3.78,13.47-7.41,19.87-11.58,3.84-2.51,.55-8.25-3.56-6.17-6.82,3.45-13.38,7.55-19.97,11.41-4.62,2.7-9.2,5.46-13.77,8.23,.31-2.98,.62-5.95,.94-8.93,3.82-36.29,7.67-72.61,9.86-109.05,1.09-18.22,1.78-36.5,1.8-54.77,.84,.12,1.76-.12,2.59-.93,9.57-9.29,17.59-21.19,21.76-33.95,1.21-3.71-4.72-6.4-6.4-2.74-2.67,5.8-5.36,11.55-8.76,16.97-2.78,4.42-5.92,8.72-9.26,12.78-.16-15.13-.79-30.26-2.11-45.34-.39-4.44-.86-8.86-1.38-13.29-.49-4.25-7.18-4.44-6.79-.04,3.17,36.02,3.35,72.24,1.49,108.34-.99,19.3-2.53,38.56-4.35,57.79-13.54-8.3-21.25-22.49-30.64-34.87-10.48-13.82-24.07-24.79-40.15-31.44-8.99-3.71-18.49-5.91-28.17-6.74-4.23-.36-4.17,6.11-.04,6.55,16.58,1.78,32.79,8.49,45.88,18.81,13.03,10.27,20.98,24.35,30.96,37.28,5.45,7.06,11.84,13.74,19.89,17.83,.52,.26,1.02,.4,1.51,.44-1.44,14.63-3.02,29.26-4.65,43.87-2.03,18.22-4.16,36.42-6.17,54.64-20.62-26.25-48.69-46.86-80.49-57.32-4.18-1.37-5.84,4.99-1.83,6.5,30.66,11.57,58.01,31.03,77.92,57.18,.89,1.17,2.15,1.91,3.51,1.84-1.64,15.26-3.18,30.54-4.46,45.84-1.5,18.01-2.98,36.07-3.63,54.13-.04,1.17-.09,2.33-.13,3.5-33.76-6.38-66.3-18.42-95.89-35.92-8.69-5.14-17.15-10.69-25.36-16.56-3.62-2.59-6.87,3.25-3.48,5.87,28.52,22.02,61.78,38.12,96.36,48.06,9.24,2.66,18.61,4.8,28.07,6.51-.49,13.9-.84,27.78-.17,41.71,1.72,35.92,7.06,71.85,17.02,106.44,1.34,4.64,2.93,8.82,5.23,13.08,1.53,2.84,5.26,3.97,8.15,2.72,3.25-1.41,4.26-4.35,3.83-7.69-1.16-8.93-4.27-17.49-6.47-26.23-2.14-8.5-4.01-17.07-5.63-25.69-3.21-17.13-5.26-34.03-6.72-51.4-1.58-18.81-2.53-37.64-2.83-56.48,19.14-3.49,37.99-10.32,55.76-18.05,18.4-8.01,35.99-17.85,52.44-29.35,9.21-6.44,18.27-13.31,26.39-21.1,3.46-3.32-1.55-8.07-5.13-5.19Z"/><path class="d" d="M38.09,318.05c-14.7,23.55-20.53,52.33-15.56,79.71,.22,1.2,2.02,.7,1.83-.49-4.47-26.99,.74-55.05,15.14-78.38,.55-.9-.85-1.72-1.4-.83Z"/><path class="d" d="M38.6,390.2c-4.01-6.74-4.31-15.29,.08-21.95,.59-.89-.82-1.7-1.42-.84-4.73,6.83-5.18,16.82-.23,23.7,.66,.92,2.17,.12,1.57-.9Z"/><path class="d" d="M74.22,198.46c-4.77,9.33-7.24,19.77-6.91,30.26,.04,1.17,1.84,1.19,1.83,.01-.05-10.18,2.11-20.22,6.57-29.39,.48-.99-.98-1.88-1.49-.88Z"/><path class="d" d="M87.3,218.34c-3.66,4.94-4.91,11.38-3.26,17.31,.34,1.23,2.25,.73,1.92-.52-1.41-5.4-.39-11.34,2.84-15.9,.66-.93-.84-1.78-1.5-.89Z"/><path class="d" d="M324.88,219.84c-3.33-14.34-6.93-28.62-10.47-42.91-.26-1.04-1.85-.61-1.61,.43,3.38,14.33,6.71,28.68,10.31,42.96,.29,1.15,2.04,.67,1.77-.48Z"/><path class="d" d="M338.05,203.37c-2.99-11.13-6.45-22.13-9.73-33.18-.3-1.02-1.89-.6-1.6,.43,3.16,11.08,6.14,22.22,9.58,33.22,.35,1.1,2.05,.66,1.74-.47Z"/><path class="d" d="M188.32,56.61c-13.13,4.26-24.75,13.84-30.78,26.36-.55,1.15,1.12,2.18,1.73,1.02,6.3-11.94,16.63-21.34,29.49-25.73,1.04-.35,.61-2-.45-1.66Z"/><path class="d" d="M184.57,73.24c-2.9,3.18-5.81,6.36-8.69,9.56-2.88,3.2-5.85,6.34-8.59,9.66-.78,.95,.48,2.31,1.37,1.39,2.99-3.1,5.77-6.41,8.62-9.63,2.86-3.22,5.69-6.48,8.53-9.72,.74-.85-.47-2.1-1.24-1.25Z"/><path class="d" d="M373.24,306.19c-.63-.87-2.11-.05-1.47,.85,6.82,9.61,9.99,21.02,9.66,32.75-.03,1.2,1.78,1.2,1.86,.01,.77-11.91-3.04-24-10.04-33.61Z"/><path class="d" d="M376.43,359.62c0-1.18-1.82-1.19-1.83-.01-.06,4.42-.13,8.83-.1,13.25,0,1.21,1.85,1.22,1.87,.01,.08-4.42,.07-8.83,.05-13.25Z"/><path class="d" d="M229.77,375.31c-5.13,22.54-6.26,47.11-1.17,69.78,.27,1.19,1.97,.67,1.79-.48-1.77-11.48-3.12-22.82-2.94-34.46,.17-11.55,1.5-23.09,3.93-34.38,.23-1.05-1.37-1.51-1.61-.45Z"/><path class="d" d="M243.01,395.32c-4.81,9.18-5.71,20.78-1.32,30.32,.44,.96,2.09,.29,1.72-.72-3.43-9.44-3.54-19.64,1.01-28.76,.47-.94-.92-1.78-1.42-.84Z"/></g></g></g></svg>