<?xml version="1.0" encoding="UTF-8"?><svg xmlns="http://www.w3.org/2000/svg" viewBox="0 0 414.62 646.3"><defs><style>.d{fill:#c53817;}.e{fill:#de842b;}</style></defs><g id="a"/><g id="b"><g id="c"><g><path class="e" d="M393.22,296.81c1.66-5.05,.97-10.95,.18-16.37-4.03-27.45,6.81-102.91-22.2-118.79-25.23-13.81-81,30.34-106.87,38.18,6.4-17.72,23-29.64,39.76-38.25,16.76-8.61,34.89-15.25,49.14-27.58,3.63-3.14,7.18-7.11,7.3-11.91,.09-3.75-1.96-7.19-3.95-10.37-7.62-12.17-15.47-24.2-23.54-36.07-1.16-1.71-2.47-3.53-4.44-4.16-2.72-.88-5.54,.8-7.91,2.41l-46.61,31.71c3.17-18.03,12.55-34.91,26.19-47.12,4.12-3.69,8.82-7.25,10.64-12.48,3-8.66-3.21-17.82-10.26-23.7-19.35-16.1-24.26-30.51-50.87-16.86-17.45,8.95-35.09,18.04-49.83,30.97-14.74,12.94-26.51,30.33-28.7,49.82,24.76,10.99,36.92,43.94,25.23,68.37-3.2,.39-6.4,.78-9.6,1.17-14.73-8.31-25.97-22.31-41.59-28.81-44.07-18.32-96.47,67.72-49.01,96.74,14.09,8.61,30.77,11.6,46.41,16.89,15.64,5.29,31.56,14.16,38.06,29.34,.97,2.26,1.71,4.73,1.29,7.15-1.28,7.36-11.19,8.82-18.62,7.93-40.42-4.85-75.33-26.66-100.19-57.54C26.62,268.14-10.22,331.17,2.6,387.99c15.62,69.24,100.39,113.38,163.48,128.44,3.2,.76,6.41,1.46,9.65,2.08,37.75,7.25,79.83,3.18,118.26,4.18,24.71,.65,50.93,.92,72.15-11.76,21.21-12.68,33.54-43.44,18.33-62.91-7.54,4.21-16.73,6.99-24.76,3.81-8.03-3.17-12.87-14.39-7.24-20.94,6.84-7.95,19.6-2.42,30.09-2.81,12.8-.48,23.42-11.16,27.83-23.19,6.58-17.97,4.52-48.73,.43-67.38-1.82-8.29-7.91-16.26-16.3-17.57-5.42-.85-10.83,1.13-16.02,2.89-20.88,7.11-42.71,11.38-64.73,12.65-3.09,.18-6.58,.15-8.75-2.05-2.85-2.89-1.6-8.11,1.48-10.76,3.08-2.65,7.3-3.41,11.31-4.08,18.06-3,36.13-6.01,54.19-9.01,7.11-1.18,14.96-2.81,19.16-8.66,.92-1.28,1.59-2.66,2.06-4.11ZM116.1,409.77c-6.64,.79-12.61-3.82-17.47-8.41-12.4-11.69-23.2-25.08-32-39.67-7.85-13.02-13.47-31.43-2.59-42.05,9.5-9.28,25.82-5.87,36.53,1.98,13.22,9.67,51.41,83.9,15.53,88.16ZM251.37,249.82c6.5-11.87,18.76-20.74,32.68-20.32,21.17,.65,39.16,15.07,54.7,29.48,5.24,4.86,10.8,10.7,10.59,17.85-.3,10.42-12.14,16.11-22.27,18.56-23.48,5.68-62.92,14.66-77.02-12.22-5.59-10.66-4.28-23.12,1.32-33.35Z"/><path class="d" d="M319.85,429.33c-17.19,9.55-34.4,18.57-52.89,25.4-18.23,6.74-37.09,11.72-56.28,14.78-9.86,1.57-19.76,2.4-29.69,3.28,2.31-14.05,4.98-28.04,8.07-41.97,6.59-29.68,14.56-59.05,22.75-88.34,6.59-2.26,13.18-4.53,19.74-6.91,7.18-2.61,14.53-5.03,21.54-8.06,4.21-1.82,1.93-8.04-2.47-6.69-7.3,2.25-14.46,5.19-21.61,7.88-5.01,1.88-9.99,3.83-14.96,5.79,.81-2.88,1.62-5.76,2.43-8.64,9.89-35.13,19.81-70.27,28.12-105.82,4.15-17.78,7.92-35.67,11.01-53.68,.81,.26,1.76,.18,2.71-.48,11-7.54,20.92-17.92,27.18-29.79,1.82-3.46-3.57-7.1-5.85-3.78-3.61,5.26-7.23,10.49-11.5,15.25-3.49,3.89-7.31,7.6-11.28,11.03,2.4-14.94,4.33-29.96,5.57-45.04,.36-4.44,.64-8.88,.89-13.33,.23-4.27-6.32-5.58-6.68-1.18-2.95,36.04-8.88,71.77-16.81,107.04-4.24,18.85-9,37.58-14.04,56.23-11.95-10.47-17.15-25.75-24.31-39.54-8-15.39-19.54-28.5-34.27-37.76-8.23-5.17-17.23-8.95-26.63-11.39-4.11-1.07-5.14,5.32-1.14,6.45,16.04,4.55,30.89,13.9,42.05,26.28,11.11,12.32,16.57,27.54,24.23,41.97,4.18,7.88,9.36,15.54,16.59,20.93,.46,.35,.94,.56,1.41,.68-3.89,14.18-7.91,28.33-11.98,42.46-5.07,17.61-10.25,35.2-15.3,52.82-15.9-29.35-40.09-54.4-69.66-70.08-3.89-2.06-6.6,3.93-2.9,6.1,28.27,16.58,51.94,40.38,67.16,69.51,.68,1.3,1.8,2.25,3.15,2.4-4.2,14.77-8.29,29.56-12.13,44.43-4.52,17.5-9.02,35.05-12.71,52.74-.24,1.14-.48,2.29-.72,3.43-32.2-11.98-62.24-29.34-88.45-51.59-7.7-6.53-15.1-13.43-22.21-20.61-3.13-3.17-7.32,2.04-4.42,5.2,24.4,26.51,54.46,48,86.87,63.63,8.66,4.18,17.54,7.87,26.57,11.15-2.83,13.62-6.74,28.13-6.08,42.05,1.72,35.92,7.06,71.85,17.02,106.44,1.34,4.64,2.93,8.82,5.23,13.08,1.53,2.84,5.26,3.97,8.15,2.72,3.25-1.41,4.26-4.35,3.83-7.69-1.16-8.93-4.27-17.49-6.47-26.23-2.14-8.5-4.01-17.07-5.63-25.69-3.21-17.13-5.26-34.03-6.72-51.4-1.58-18.81,.61-36.06,3.49-54.68,19.45-.21,39.18-3.76,58-8.39,19.48-4.79,38.49-11.52,56.64-20.08,10.16-4.79,20.25-10.03,29.57-16.34,3.97-2.69-.16-8.21-4.18-5.98Z"/><path class="d" d="M50.32,285.15c-18.46,20.73-29.06,48.12-28.79,75.94,.01,1.22,1.88,1.03,1.88-.18,.15-27.36,10.02-54.13,28.15-74.7,.7-.79-.55-1.84-1.24-1.06Z"/><path class="d" d="M38.66,356.34c-2.81-7.32-1.67-15.8,3.78-21.63,.73-.78-.52-1.82-1.25-1.07-5.81,5.94-7.94,15.71-4.22,23.32,.5,1.02,2.12,.48,1.7-.63Z"/><path class="d" d="M106.12,173.37c-6.28,8.39-10.47,18.27-11.92,28.66-.16,1.16,1.61,1.49,1.8,.32,1.67-10.05,5.49-19.57,11.44-27.86,.64-.9-.65-2.02-1.32-1.12Z"/><path class="d" d="M115.65,195.17c-4.44,4.26-6.76,10.39-6.13,16.51,.13,1.27,2.09,1.1,1.98-.19-.48-5.56,1.53-11.24,5.48-15.2,.8-.8-.53-1.9-1.33-1.13Z"/><path class="d" d="M349.58,236.73c-.86-14.7-2-29.38-3.08-44.06-.08-1.07-1.72-.91-1.66,.16,.91,14.69,1.77,29.4,2.91,44.08,.09,1.18,1.89,1.01,1.82-.17Z"/><path class="d" d="M365.34,222.72c-1.07-11.47-2.63-22.9-3.99-34.34-.13-1.05-1.76-.91-1.65,.15,1.24,11.45,2.3,22.94,3.84,34.36,.15,1.15,1.91,1,1.8-.17Z"/><path class="d" d="M242.52,52.8c-13.66,1.99-26.73,9.46-34.78,20.79-.74,1.04,.74,2.34,1.53,1.3,8.22-10.71,19.99-18.23,33.41-20.39,1.08-.17,.94-1.87-.16-1.71Z"/><path class="d" d="M236.02,68.56c-3.4,2.65-6.8,5.29-10.18,7.96-3.37,2.67-6.84,5.26-10.1,8.07-.93,.8,.09,2.36,1.12,1.6,3.47-2.55,6.77-5.34,10.12-8.03,3.36-2.7,6.7-5.43,10.05-8.15,.87-.71-.11-2.15-1.01-1.45Z"/><path class="d" d="M382.67,330c-.48-.96-2.07-.4-1.59,.59,5.1,10.62,6.3,22.4,3.99,33.91-.24,1.18,1.55,1.48,1.83,.32,2.77-11.61,1.06-24.17-4.23-34.82Z"/><path class="d" d="M376.8,383.21c.2-1.16-1.59-1.48-1.8-.32-.81,4.34-1.62,8.68-2.33,13.04-.19,1.19,1.62,1.51,1.85,.33,.83-4.34,1.56-8.69,2.29-13.05Z"/><path class="d" d="M229.6,373.93c-8.86,21.35-14.12,45.37-12.93,68.58,.06,1.21,1.83,1,1.85-.17,.19-11.61,.78-23.02,2.91-34.47,2.12-11.36,5.38-22.5,9.68-33.22,.4-.99-1.1-1.72-1.51-.72Z"/><path class="d" d="M239.27,395.88c-6.29,8.24-9.14,19.51-6.41,29.66,.27,1.02,2.01,.64,1.82-.41-1.79-9.89-.18-19.95,5.85-28.18,.62-.85-.61-1.91-1.26-1.07Z"/></g></g></g></svg>