<?xml version="1.0" encoding="UTF-8"?><svg xmlns="http://www.w3.org/2000/svg" viewBox="0 0 307.23 329.34"><defs><style>.d{fill:#4a8684;}.e{fill:#de842b;}</style></defs><g id="a"/><g id="b"><g id="c"><g><g><path class="d" d="M230.5,148.53c-4.07-24.03,6.62-73.9,42.27-59.88,12.41,4.88,20.74,16.78,25.91,29.07,21.7,51.51-1.22,111.01-32.17,157.56-13.12-15.22-31.83-24.18-49.31-34.09-17.48-9.92-35.09-22.18-43.06-40.63-13.47-31.17,40.92-77.71,50.68-56.75,0,0,2.8,6,2.8,6l2.88-1.28Z"/><path class="d" d="M152.73,95.15c15.85-12.84,25.4,13.39,20.06,25.02-4.16,9.06-39.78,16.33-48.61,18.54-17.33,4.33-118.91-4.08-124.18,2.32,27.36-33.23,58.36-63.46,92.26-89.97,12.91-10.1,27.35-20.05,43.74-20.49,48.12-1.29,25.61,41.53,18.73,60.41l-1.6,4.4-.39-.22Z"/><path class="e" d="M277.75,3.24c-.39,2.56-1.37,4.99-1.77,7.58-.39,2.55-1.08,5.04-1.95,7.47-1.7,4.75-3.79,8.55-6.68,12.88-5.89,8.81-12.34,15.74-21.68,21.68-6.04,3.84-12.63,6.62-19.11,9.63-6.48,3.01-13.13,5.67-19.89,7.96-13.67,4.63-27.74,7.74-41.75,11.17-15.84,3.87-31.88,7.23-47.52,11.87-4.58,1.36-3.71,8.4,1.27,7.53,15.17-2.65,30.13-6.55,45.14-9.94,7.47-1.69,14.94-3.38,22.41-5.06,7.57-1.71,15.18-3.04,22.78-4.54,.55-.11,1.09-.23,1.63-.34-11.73,9.61-22.73,20.18-32.97,31.29-13.35,14.49-26.46,30.07-35.71,47.56-4.01,7.58-7.11,15.49-9.11,23.8-3.1,.45-6.11,1.39-8.77,2.87-7.52,4.19-12.47,11.95-14.72,20.11-4.22,15.31-2.35,36,9.97,47.3,6.56,6.02,15.15,7.53,23.75,6.11,8.08-1.33,15.98-5.05,24.26-5.01,11.9,.06,23.24,9.87,25.27,21.58-3.52-.84-7.16-.99-10.71-.05-7.86,2.08-14.82,9.19-10.75,17.6,3.27,6.74,11.44,10.06,18.38,7.31,5.18-2.05,8.67-6.69,10.5-11.92,2.53,1.92,4.82,4.18,6.72,6.51,5.87,7.17,9.69,15.79,15.42,23.08,2.96,3.76,6.48,7.02,10.6,9.46,4.39,2.59,8.81-3.55,4.56-6.58-7.47-5.32-12.16-13.34-16.89-21-4.52-7.32-9.29-14.24-16.48-19.21-.78-.54-1.59-1.06-2.42-1.55-.24-15.33-11.94-29.43-26.81-32.95-8.14-1.93-16.02-.08-23.91,2.04-7.05,1.89-15.22,4.38-22.15,.74-6.67-3.5-10.05-11.28-11.53-18.29-1.63-7.7-1.59-16.18,.82-23.72,2.12-6.64,6.42-13.14,13.36-15.25-.39,7.35,1.34,15.09,8.22,18.79,7.34,3.94,17.57,1.45,19.09-7.64,1.37-8.23-4.79-15.68-11.97-18.71-1.8-.76-3.72-1.28-5.69-1.59,.62-2.46,1.36-4.88,2.21-7.27,6.39-17.87,18.29-33.4,30.35-47.81,11.03-13.18,23.13-25.48,36.06-36.81-.44,.89-.9,1.78-1.29,2.69-7.09,16.36-4.06,35.18,6.28,49.44,5.91,8.16,13.6,14.65,23.48,17.14,5.99,1.51,9.29-6.79,3.34-9.17-13.53-5.42-24.57-16.3-27.81-30.82-3.42-15.37,3.52-30.25,14.44-40.9,1.86-1.82,3.84-3.53,5.88-5.17,6.32-2.25,12.33-5.17,18.06-8.72,10.35-6.42,20.38-14.9,26.59-25.54,3.54-6.07,5.95-12.22,7.29-19.12,.59-3.01,.94-6.05,.97-9.13,.04-3.94-1.02-6.89-2.27-10.55-1.24-3.63-6.33-1.99-6.81,1.18Zm-97.06,289.38c-1.7-1.35-2.92-3.21-1.51-5,2.03-2.59,6.38-3.19,9.42-2.88,1.22,.13,2.41,.42,3.58,.78-1.66,5.31-6.07,11.4-11.49,7.1Zm-32.02-87.91c-2.26,1.16-5.52-.1-7.01-1.93-2.29-2.83-2.52-6.8-2.2-10.47,3.82,.51,7.45,2.2,9.44,5.52,1.17,1.95,2.3,5.58-.24,6.88Z"/></g><path class="e" d="M219.87,208.66c-5.67-5.86-9.78-12.48-11.69-20.49-.91-3.83-1.3-7.77-1.13-11.7,.16-3.9,.5-8.99,3.19-12.02,2.39-2.69-3.13-4.77-3.21-1.33-.1,4.26-1.66,8.37-1.92,12.68-.25,4.21,.14,8.46,1.08,12.57,1.84,8.02,6.01,16.21,12.3,21.66,.94,.81,2.26-.47,1.38-1.38Z"/><path class="e" d="M232.62,195.96c-6.16-6.03-9.75-14.15-9.48-22.83,.03-1.09-1.62-1.08-1.69,0-.53,8.91,3.07,18.24,9.89,24.11,.87,.75,2.12-.45,1.28-1.28Z"/><path class="e" d="M278.52,150.81c-1.52-12.79-7.75-25.39-19.31-31.82-.99-.55-1.88,.96-.89,1.52,11.54,6.61,17.45,19.75,18.4,32.63,1.2,16.07-4.91,31.24-10.13,46.08-.43,1.22,1.45,1.68,1.91,.53,6.05-15.31,12.01-32.22,10.02-48.93Z"/><path class="e" d="M259.56,159.88c-.01-1.06-1.64-1.06-1.65,0-.07,6.62-.27,13.25-.08,19.87,.03,1.16,1.77,1.16,1.81,0,.19-6.62,0-13.25-.08-19.87Z"/><path class="e" d="M123.15,114.06c-11.8,1.39-23.58,2.9-35.37,4.4-11.51,1.46-23.1,2.65-34.55,4.49-1.06,.17-.82,2,.26,1.89,11.81-1.14,23.6-2.97,35.37-4.5,11.51-1.5,23.03-2.98,34.53-4.58,.95-.13,.74-1.81-.23-1.69Z"/><path class="e" d="M82.92,99.2c-5.56,2.09-11.07,4.36-16.58,6.59-1.04,.42-.6,2.12,.47,1.71,5.55-2.13,11.11-4.22,16.6-6.49,1.09-.45,.65-2.24-.5-1.81Z"/><path class="e" d="M133.85,62.92c-3.61-4.23-9.47-6.49-14.88-7.02-5.66-.55-11.43,.9-16.01,4.29-.86,.64-.05,2.09,.85,1.46,4.29-3.01,9.55-4.26,14.75-3.83,5.43,.45,9.99,2.81,13.96,6.43,.9,.83,2.11-.41,1.33-1.33Z"/></g></g></g></svg>