<?xml version="1.0" encoding="UTF-8"?>
<svg xmlns="http://www.w3.org/2000/svg" xmlns:xlink="http://www.w3.org/1999/xlink" viewBox="0 0 420.31 706.93">
    <defs>
        <style>.e{fill:#4a8684;}.f{fill:#345d5b;}.g{clip-path:url(#d);}.h{fill:none;}</style>
        <clipPath id="d">
            <path class="h"
                  d="M390.47,644.57c-11.75-18.64-23.45-37.29-35.16-55.93-2.93-4.66-5.85-9.31-8.78-13.97-.73-1.47-1.52-2.81-2.56-4.07l-10.11-16.09c33.22-20.7,49.34-71.56,41.02-132-2.63-19.11-7.48-38.87-12.32-58.54l-20.07-81.63c-.55,9.79,1.89,21.12,3.27,31.89,5.58,43.45-6.04,77.28-16.11,110.52-9.37,30.94-18.32,65.6-10.44,106.46-11.52-18.33-23.04-36.66-34.56-54.99-1.32-2.1-2.64-4.21-3.97-6.31,10.59-28.21,20.08-58.45,19.36-95.41-.3-15.63-2.44-32.26-6.34-49.2-4.31-18.75-10.72-37.74-17.11-56.64-9.72-28.77-19.44-57.54-29.15-86.32,6.93,52.92,9.47,104.26,7.57,152.82-1.39,35.63-4.54,75.03,14.84,113.95l9.84,19.24c-10.24-16.29-20.48-32.58-30.71-48.87-5.8-9.23-11.62-18.45-17.44-27.68-3.59-5.7-7.35-11.34-11.06-17.01,3.79-50.58,6.65-104.47-12.7-162.79-7.81-23.55-29.88-55.92-27.88-79.79-5.83,69.52-7.43,133.42,20.07,203.66l4.57,9.58c.26,1.62,.52,3.24,.79,4.87-8.13-13.88-15.73-27.92-23.18-41.96-8.36-15.77-24.66-35.19-25.13-51.94-.33-11.8,1.02-23.23-.34-35.21-6.76-59.59-26.07-128.29-65.68-180.29,14.55,51.69,27.28,103.41,36.4,154.13l11.34,28.55c.11,.58,.22,1.16,.33,1.75-9.07-18.11-18.04-36.25-27.04-54.37,.15,.08,.3,.17,.45,.24l-8.54-31.52C87.6,89.63,61.28,39.9,28.16,0c6.31,20.32,12.62,40.63,18.93,60.95,6.58,21.2,13.32,42.78,23.89,63.08,7.81,15,18.14,29.39,29.37,39,3.12,6.64,6.25,13.28,9.44,19.9,9.26,19.23,18.87,38.4,27.78,57.71,.71,1.54,1.44,3.09,2.15,4.63-2.64-2.56-5.25-5.13-7.84-7.72-30.57-48.66-69.51-88.09-107.12-126.54,18.84,25.9,34.65,54.95,52.71,81.74,17.96,26.62,39.45,52.05,61.87,63.15,3.08,3.04,6.23,6.24,9.67,9.17,14.03,29.49,28.89,58.77,45.57,87.64,1.57,2.71,3.14,5.42,4.7,8.13-1.38-1.08-2.75-2.17-4.1-3.27l-21.2-26.81c-36.84-40.86-74.53-79.92-113.58-114.35-19.76-17.42-40.55-34.43-60.4-40.07,24.15,18.04,43.44,50.26,64.24,77.6,20.39,26.8,44.87,51.93,72.95,74.65,23.65,19.14,57.06,34.74,73.53,57.68,9.23,12.86,19,25.44,27.26,38.6,4.24,6.75,8.49,13.51,12.73,20.26,2.7,4.29,13.38,15.91,12.73,20.26,.36,.57,.72,1.15,1.08,1.72-.74-.47-1.48-.93-2.21-1.4-.44-.28-.86-.58-1.3-.87l-11.86-12.37c-72.21-64-147.38-115.84-221.64-149.1,16.65,19.14,33.3,38.28,49.96,57.42,16.98,19.52,34.29,39.35,52.92,53.17,16.55,12.28,33.37,19.23,49.95,26.05,27.26,11.21,59.01,19.15,82.81,35.59,13.56,9.37,19.48,20.32,27.11,32.45,10.75,17.1,21.49,34.2,32.24,51.29-3.34-1.04-6.72-2.01-10.03-3.11-1.78-.59-3.55-1.21-5.32-1.86l-10.38-9.99c-40.91-41.67-86.64-51.25-130.19-73.13-31.24-15.69-62.77-37.95-92.84-65.56,51,86.08,129.4,148.69,194.05,154.98,21.15,2.06,41.78,.16,57.68,13.58,15.16,12.79,23.32,29.31,30.9,44.91l34.9,71.86c2.08,4.28,4.28,8.71,8.56,12.02,4.27,3.31,11.25,5.11,16.06,2.9,6.9-3.18,4.77-11.53,.23-17.17-11.22-13.9-16.18-29.21-25.64-44.22Z"/>
        </clipPath>
    </defs>
    <g id="a"/>
    <g id="b">
        <g id="c">
            <g>
                <path class="f"
                      d="M390.47,644.57c-11.75-18.64-23.45-37.29-35.16-55.93-2.93-4.66-5.85-9.31-8.78-13.97-.73-1.47-1.52-2.81-2.56-4.07l-10.11-16.09c33.22-20.7,49.34-71.56,41.02-132-2.63-19.11-7.48-38.87-12.32-58.54l-20.07-81.63c-.55,9.79,1.89,21.12,3.27,31.89,5.58,43.45-6.04,77.28-16.11,110.52-9.37,30.94-18.32,65.6-10.44,106.46-11.52-18.33-23.04-36.66-34.56-54.99-1.32-2.1-2.64-4.21-3.97-6.31,10.59-28.21,20.08-58.45,19.36-95.41-.3-15.63-2.44-32.26-6.34-49.2-4.31-18.75-10.72-37.74-17.11-56.64-9.72-28.77-19.44-57.54-29.15-86.32,6.93,52.92,9.47,104.26,7.57,152.82-1.39,35.63-4.54,75.03,14.84,113.95l9.84,19.24c-10.24-16.29-20.48-32.58-30.71-48.87-5.8-9.23-11.62-18.45-17.44-27.68-3.59-5.7-7.35-11.34-11.06-17.01,3.79-50.58,6.65-104.47-12.7-162.79-7.81-23.55-29.88-55.92-27.88-79.79-5.83,69.52-7.43,133.42,20.07,203.66l4.57,9.58c.26,1.62,.52,3.24,.79,4.87-8.13-13.88-15.73-27.92-23.18-41.96-8.36-15.77-24.66-35.19-25.13-51.94-.33-11.8,1.02-23.23-.34-35.21-6.76-59.59-26.07-128.29-65.68-180.29,14.55,51.69,27.28,103.41,36.4,154.13l11.34,28.55c.11,.58,.22,1.16,.33,1.75-9.07-18.11-18.04-36.25-27.04-54.37,.15,.08,.3,.17,.45,.24l-8.54-31.52C87.6,89.63,61.28,39.9,28.16,0c6.31,20.32,12.62,40.63,18.93,60.95,6.58,21.2,13.32,42.78,23.89,63.08,7.81,15,18.14,29.39,29.37,39,3.12,6.64,6.25,13.28,9.44,19.9,9.26,19.23,18.87,38.4,27.78,57.71,.71,1.54,1.44,3.09,2.15,4.63-2.64-2.56-5.25-5.13-7.84-7.72-30.57-48.66-69.51-88.09-107.12-126.54,18.84,25.9,34.65,54.95,52.71,81.74,17.96,26.62,39.45,52.05,61.87,63.15,3.08,3.04,6.23,6.24,9.67,9.17,14.03,29.49,28.89,58.77,45.57,87.64,1.57,2.71,3.14,5.42,4.7,8.13-1.38-1.08-2.75-2.17-4.1-3.27l-21.2-26.81c-36.84-40.86-74.53-79.92-113.58-114.35-19.76-17.42-40.55-34.43-60.4-40.07,24.15,18.04,43.44,50.26,64.24,77.6,20.39,26.8,44.87,51.93,72.95,74.65,23.65,19.14,57.06,34.74,73.53,57.68,9.23,12.86,19,25.44,27.26,38.6,4.24,6.75,8.49,13.51,12.73,20.26,2.7,4.29,13.38,15.91,12.73,20.26,.36,.57,.72,1.15,1.08,1.72-.74-.47-1.48-.93-2.21-1.4-.44-.28-.86-.58-1.3-.87l-11.86-12.37c-72.21-64-147.38-115.84-221.64-149.1,16.65,19.14,33.3,38.28,49.96,57.42,16.98,19.52,34.29,39.35,52.92,53.17,16.55,12.28,33.37,19.23,49.95,26.05,27.26,11.21,59.01,19.15,82.81,35.59,13.56,9.37,19.48,20.32,27.11,32.45,10.75,17.1,21.49,34.2,32.24,51.29-3.34-1.04-6.72-2.01-10.03-3.11-1.78-.59-3.55-1.21-5.32-1.86l-10.38-9.99c-40.91-41.67-86.64-51.25-130.19-73.13-31.24-15.69-62.77-37.95-92.84-65.56,51,86.08,129.4,148.69,194.05,154.98,21.15,2.06,41.78,.16,57.68,13.58,15.16,12.79,23.32,29.31,30.9,44.91l34.9,71.86c2.08,4.28,4.28,8.71,8.56,12.02,4.27,3.31,11.25,5.11,16.06,2.9,6.9-3.18,4.77-11.53,.23-17.17-11.22-13.9-16.18-29.21-25.64-44.22Z"/>
                <g class="g">
                    <path class="e"
                          d="M393.49,461.19c4.24-35.51,.6-72.12-10.72-107.75-6.4-20.13-14.72-40.56-26.71-59.54-.86-1.36-2.13-2.22-3.54-2.7-.92-4.35-1.84-8.7-2.69-13.06-.64-3.29-7.05-2.89-6.63,.37,.6,4.67,1.09,9.34,1.59,14-1.15,1.12-1.56,2.7-.57,4.59,.45,.86,.9,1.72,1.35,2.57,.31,2.69,.63,5.38,1,8.06,1.32,9.51,2.63,19,3.45,28.51,.83,9.73,1.7,19.48,2.32,29.21,.59,9.26,.58,18.51,.72,27.76,.28,19.18-.8,38.28-3.83,57.12-3.07,19.12-7.86,37.94-13.18,56.63-2.51,8.83-5.98,17.68-6.86,26.83-.81,8.35,.87,17.57,9.01,24.37,2.99,2.5,7.85,3.21,10.65,.56,28.57-27.01,40.45-62.42,44.64-97.52Z"/>
                    <path class="e"
                          d="M315.74,360.95c2.16-35.31-1.07-71.27-15.49-106.16-7.6-18.4-18.49-36.17-32.82-52.49-1.62-1.84-4.76-2.54-7.36-2.09-2.86-8.71-5.89-17.39-8.99-26.04-1.11-3.09-7.5-2.88-6.51,.36,5.83,19.1,10.16,38.24,14.02,57.49,3.86,19.25,7.07,38.53,9.38,57.82,2.29,19.06,3.6,38.14,4.08,57.17,.49,19.57-.77,38.96-1.03,58.47-.29,21.84,2.8,43.73,10.16,65.37,1.7,5,9.84,6.39,12.88,1.92,5.52-8.11,7.98-17.34,9.74-26.5,1.81-9.41,3.37-18.87,4.94-28.32,3.14-18.89,5.85-37.86,7.02-57.01Z"/>
                    <path class="e"
                          d="M237.47,333.68c.38-14.37,.43-28.76,.41-43.16-.02-14.29,.21-28.69-3.02-43.03-2.93-13.03-8.37-25.88-15-38.31-3.73-6.99-7.86-13.88-12.18-20.71-4.44-7.01-8.81-14.05-14.31-20.68-.16-.19-.35-.35-.54-.51-4.11-13.61-7.77-27.33-6.42-40.98,.33-3.33-6.04-4.24-6.82-1.02-3.44,14.13-.09,28.8,3.27,43.22-.49,1.02-.48,2.21,.13,3.39,.35,.67,.74,1.32,1.11,1.98,3.69,16.2,6.93,32.43,9.79,48.66,5.82,33.01,9.76,66.05,13.75,99.09,1.09,9.06,2.14,18.12,3.38,27.17,1.19,8.67,3.03,17.48,8.05,25.66,2.43,3.96,10.01,4.56,12.15,.62,6.91-12.7,5.88-27.52,6.24-41.39Z"/>
                    <path class="e"
                          d="M164.55,248.2c-.58-3.75-1.19-7.49-1.83-11.24-1.24-7.26-2.59-14.52-4.05-21.77-1.93-9.6-4.07-19.2-6.39-28.78,.86-.45,1.51-1.15,1.69-2.06,.28-1.41,.13-2.9,.06-4.35-.08-1.61,.07-3.17-.1-4.8-.31-2.97-.72-5.89-1.34-8.85-1.22-5.88-2.65-11.77-4.37-17.61-3.45-11.72-8.35-23.19-13.25-34.67-1.36-3.19-2.87-6.35-4.29-9.53-.68-1.54-1.41-3.06-2.16-4.59-.86-1.77-2.07-3.36-3.03-5.09-.48-.86-1.49-1.31-2.52-1.41-1.21-3.02-2.43-6.03-3.7-9.04-3.39-8.05-6.92-16.08-10.6-24.08-3.66-7.96-6.98-16.15-11.5-23.9-1.39-2.39-6.75-1.76-5.84,.93,2.43,7.15,5.78,14.19,8.55,21.29,2.79,7.17,5.56,14.35,8.1,21.56,5.08,14.39,10.04,28.8,14.72,43.24,9.33,28.81,17.08,57.85,23.16,86.95,1.7,8.16,3.27,16.32,4.7,24.49,.71,4.08,1.39,8.17,2.04,12.26,.68,4.28,1.19,8.62,3.73,12.65,2.02,3.21,7.15,2.51,8.13-.42,1.2-3.58,.68-7.42,.1-11.17Z"/>
                    <path class="e"
                          d="M113.81,160.96c-.15-4.25-.17-8.47-1.18-11.13-2.86-7.49-6.23-15.08-9.17-22.65-4.3-11.09-8.95-22.13-13.93-33.1-4.92-10.83-10.24-21.67-16.2-32.26-5.98-10.62-12.56-21.07-18.98-31.56-3.62-5.92-7.25-11.85-11.08-17.71-3.87-5.92-7.61-12.05-12.38-17.63-2.1-2.46-6.62-.4-5.36,2.11,2.66,5.3,6.21,10.43,9.38,15.6,3.24,5.29,6.51,10.59,9.59,15.93,6.07,10.5,11.45,21.12,16.62,31.84,16.07,33.29,29.73,66.9,46.91,99.91,2.41,4.63,4.87,9.33,8.87,13.35-2.52-2.54-2.91-7.63-3.09-12.69Z"/>
                    <path class="e"
                          d="M139.25,259.13c-.89-1.21-1.37-2.44-2.13-3.67-.89-1.44-2.08-2.77-3.31-4.06-2.15-2.27-4.33-4.52-6.46-6.8-4.26-4.56-8.38-9.17-12.43-13.83-8.11-9.33-15.77-18.81-23.34-28.38-7.41-9.35-14.55-18.8-21.77-28.23-7.9-10.31-16.21-20.44-23.95-30.82-8.75-11.74-17.44-23.54-26.89-35-2.02-2.45-7.19-.41-5.51,2.17,6.96,10.7,14.58,21.19,22.18,31.67,3.81,5.24,7.54,10.51,11.28,15.78,3.73,5.26,7.09,10.65,10.8,15.91,14.03,19.88,28.24,39.67,43.91,58.92,4.34,5.34,8.92,10.58,13.63,15.75,2.27,2.49,4.59,4.95,6.94,7.39,1.44,1.49,2.89,2.94,4.65,4.24,1.51,1.12,3.29,1.92,4.82,3.04,3.66,2.67,10.09-.66,7.58-4.08Z"/>
                    <path class="e"
                          d="M178.37,348.79c-6.03-6.34-12.1-12.67-18.19-18.98-12.47-12.92-25.06-25.78-37.76-38.57-12.61-12.7-25.35-25.32-38.23-37.87-12.89-12.56-26.44-24.74-40.02-36.89-7.63-6.82-15.09-13.75-22.7-20.58-7.73-6.94-15.56-13.78-23.51-20.58-2.93-2.5-7.98,.06-5.22,2.81,12.48,12.45,25.21,24.76,37.78,37.17,4.6,4.54,9.12,9.14,13.61,13.74-.61-.22-1.23-.42-1.87-.61-5.64-1.61-10.84,1.72-8.64,6.21,10.66,21.76,27.02,42.04,45.56,60.84,18.37,18.63,39.2,35.98,61.9,51.68,12.7,8.79,26.01,17.04,39.85,24.73,4.01,2.23,10.39,1.25,10.7-2.81,.58-7.67-7.48-14.2-13.26-20.27Z"/>
                    <path class="e"
                          d="M270.96,480.95c-7.81-6.21-16.82-11.4-25.48-16.88-8.73-5.52-17.27-11.23-25.66-17.05-16.91-11.75-33.22-23.99-49.39-36.32-16.65-12.69-33.14-25.49-49.88-38.11-16.65-12.54-33.44-24.97-49.98-37.6-9.04-6.9-18.01-13.87-26.84-20.92-6.98-5.57-14.14-11-21.31-16.42,.01-2.71-2.12-5.34-5.93-5.91-1.01-.15-2.06-.08-3.06,.14-.91,.03-1.76,.39-2.36,.93-1.17,.72-1.98,1.72-2.01,2.93-.45,19,12.92,36.11,26.08,52.41,14.01,17.34,28.25,34.69,45.2,50.61,30.35,28.5,68.62,52.17,111.02,69.15,23.87,9.56,49.1,16.9,74.85,21.86,2.89,.56,5.94-.79,6.99-2.71,1.2-2.19-.05-4.38-2.23-6.11Z"/>
                    <path class="e"
                          d="M313.71,572.87c-26.9-25.25-65.54-39.67-100.83-56.51-8.01-3.82-16.65-8.24-24.69-12.89-8.99-5.2-17.48-10.92-25.77-16.76-16.75-11.8-31.4-25.47-45.33-39.13-8.32-8.16-16.48-16.41-24.78-24.58-8.94-8.79-18.38-17.24-27.44-25.96-3.02-2.91-8.54,.06-5.69,3.06,2.74,2.89,5.41,5.82,8.07,8.74-2.18,.94-3.77,2.84-3.05,4.83,12.42,33.98,27.96,68.18,55.71,97.79,12.56,13.41,27.58,25.81,44.8,35.88,18.99,11.11,40.3,18.83,62.82,23.84,26.33,5.86,53.4,7.96,80.19,9.52,2.74,.16,5.18-.3,6.57-2.16,1.23-1.65,1.22-3.99-.57-5.67Z"/>
                </g>
            </g>
        </g>
    </g>
</svg>