<?xml version="1.0" encoding="UTF-8"?><svg xmlns="http://www.w3.org/2000/svg" viewBox="0 0 434.73 716.34"><defs><style>.d{fill:#3a5d27;}</style></defs><g id="a"/><g id="b"><g id="c"><path class="d" d="M328.77,712.99c-49.79,14.79-120.08-22.47-162.95-53.22C90.72,605.89,32.04,528.84,0,442.03c85.77,73.49,175.31,142.5,268.11,206.63C202.26,509.1,33.97,426.84,1.21,276.42c108.82,70.48,201.03,167.22,266.47,279.58-20.96-98.89-84.22-182.9-136.58-269.71C78.74,199.48,34.88,97.39,58.67,0c14.02,103.19,95.86,182.72,146.16,274.37,43.15,78.63,63.25,167.29,82.84,254.57,11.49-122.19-8.73-247.85-58.11-361.21,41.29,42.85,77.95,91.73,97.71,147.81,37.19,105.56,10.41,220.71-16.63,328.16,61.94-103.64,83.63-231.49,59.65-351.49,96.08,125.99,86.72,333.17-41.52,420.78h0Z"/></g></g></svg>