<?xml version="1.0" encoding="UTF-8"?><svg xmlns="http://www.w3.org/2000/svg" viewBox="0 0 375.29 666.09"><defs><style>.d{fill:#4a8684;}.e{fill:#de842b;}</style></defs><g id="a"/><g id="b"><g id="c"><g><path class="d" d="M349.56,332.91c-13.49,23.48-33.92,42.91-58.04,55.22-5.62,2.87-12.98,5.18-17.77,1.06-5.11-4.39-3.35-12.66-.46-18.75,11.89-25.13,36.16-44.03,63.44-49.4,8.3-1.63,18.14-2.93,22.17-10.37,2.91-5.37,1.52-11.97-.06-17.88-7.01-26.09-16.44-51.54-28.11-75.9-3.45-7.19-7.92-14.99-15.61-17.1-14.52-3.99-24.26,13.82-31.86,26.82-13.21,22.62-36.94,38.8-62.82,42.85-10.59-20.2,8.81-43,27.79-55.66,18.97-12.65,42.07-27.49,41.72-50.29-.14-8.9-4.1-17.26-8.29-25.13-8.72-16.37-18.75-32.05-29.98-46.82-5.5-7.24-12.91-14.97-21.94-13.95-19.53,2.2-22.38,40.95-41.52,36.46-3.64-7.92,4.43-15.78,9.1-23.15,8.64-13.64,5.63-32.17-3.08-45.76-8.72-13.59-22.16-23.33-35.28-32.74-9.47-6.79-20.28-13.93-31.8-12.14-7.31,1.14-13.55,5.76-19.21,10.52-25.47,21.47-45.69,49.13-58.43,79.92-4.55,10.99-6.8,26.4,3.49,32.38,11.69,6.8,29.86-5.5,38.85,4.6,8.45,9.49-5.36,24.26-18.07,24.02-12.71-.24-24.45-7.74-37.16-7.86-12.78,28.44-20.06,59.35-21.3,90.51,24.85,2.19,49.69,4.38,74.54,6.56,6.36,.56,13.61,1.62,17.14,6.94,7.12,10.74-8.35,22.68-21.16,24.08-15.9,1.74-32.3-1.34-46.49-8.74-8.43-4.4-18.99-10.22-26.48-4.37-3.44,2.68-4.92,7.12-6.07,11.32C2.01,287.57-.28,305.66,.03,323.71c.12,7,.73,14.34,4.55,20.22,7.48,11.52,24.02,12.83,37.4,9.71,13.38-3.13,26.36-9.44,40.08-8.73,13.72,.71,28.33,12.82,24.69,26.07-23.04,14.63-52.6,18.52-78.63,10.35-6.55-2.06-15.41-4.02-18.83,1.92-1.1,1.91-1.24,4.21-1.3,6.42-1.11,40.66,17.42,81.41,48.8,107.3,31.38,25.88,74.96,36.32,114.67,27.49l59.6-9.93-.8-.02c23.31-4.85,46.19-14.67,67.01-26.27,28.71-16,56.66-36.74,70.51-66.54,13.85-29.81,8.98-70.3-18.21-88.76Zm-202.33,121.2c-7.06,6.29-19.35,6.14-28.17,6.7-16.64,1.06-48.44-3.36-42.04-27.76,4.94-18.82,22.46-19.75,37.67-15.14,12.49-1.52,25.67,2.07,33.42,12.26,5.46,7.18,6.39,17.48-.88,23.94Zm24.15-251.69c2.78-18.85,13.19-34.73,28.3-45.89,.4-.46,.78-.95,1.19-1.41,4.81-5.32,11.2-12.46,19.09-12.24,7.25,.21,12.73,5.84,14.49,12.59,8.09,31.01-24.39,59.5-52.65,60.62-7.73,.31-11.39-7.12-10.42-13.68Z"/><path class="e" d="M325.68,419.02c-4.46,6.88-9.14,13.36-15.07,19.08-5.83,5.64-12.39,10.44-19.33,14.62-14.45,8.7-30.36,14.6-46.46,19.43-6.52,1.96-13.22,3.51-19.78,5.42-6.67-19.59-13.5-39.13-20.43-58.62-6.21-17.43-12.11-34.94-17.68-52.54,3.91-4.61,8.17-8.85,13.12-12.5,7.16-5.28,15.02-9.54,23-13.44,16.27-7.94,33.47-14.36,48.55-24.53,8.29-5.59,16.2-12.34,21.65-20.82,2.17-3.37-3.09-7.6-5.65-4.36-5.43,6.85-11.49,12.89-18.7,17.88-7.49,5.19-15.59,9.41-23.79,13.33-16.32,7.81-33.54,14.42-48.25,25.15-4.41,3.22-8.76,6.86-12.54,10.97-6.06-19.62-11.67-39.38-16.69-59.35-10.34-41.15-17.62-83.19-22.15-125.36-.04-.38-.07-.77-.12-1.15,7.46-3.47,14.61-7.45,21.59-11.85,7.23-4.56,14.7-9.34,21.05-15.09,2.91-2.63-.92-7.72-4.24-5.49-7.03,4.72-13.66,9.96-20.83,14.49-5.96,3.77-12.11,7.3-18.3,10.69-3.94-39.63-5.67-79.49-5.17-119.31,.07-5.23,.12-10.45,.06-15.69-.05-4.32-6.35-4.23-6.65,0-1.52,21.21-1.04,42.71-.43,63.95,.61,21.31,1.87,42.6,3.76,63.84,1.32,14.79,2.93,29.56,4.81,44.3-.06-.04-.11-.1-.18-.14-22.85-14.23-53.41-17.95-79.03-9.76-4.06,1.3-2.41,7.47,1.77,6.42,12.4-3.14,25.11-4.27,37.83-2.64,12.71,1.62,24.68,5.93,35.89,12.05,1.77,.97,3.42,.34,4.37-.85,3.43,26.04,7.72,51.97,12.92,77.69,1.49,7.34,3.07,14.66,4.69,21.98-1.95-.81-3.98-1.46-5.99-1.96-9.38-2.36-18.97-4.09-28.52-5.62-19.36-3.1-38.93-4.89-58.53-5.26-11.09-.21-22.28-.21-33.32,.92-4.27,.44-4.48,6.9,0,6.82,18.45-.3,36.74-.73,55.17,.65,18.37,1.38,36.63,4.01,54.65,7.87,6.17,1.32,14.59,2.16,18.97,7.31,6.58,28.39,14.17,56.55,22.64,84.43-6.33-4.98-14.34-8.17-21.93-9.9-17.08-3.91-35.35-2.65-52.58-.54-11.67,1.43-23.22,3.54-34.49,6.91-4.07,1.21-2.38,7.29,1.75,6.35,18.81-4.29,37.74-7.32,57.06-7.71,13.54-.28,28.07,.51,40.21,7.16,6.52,3.57,10.71,8.48,13.9,15.11,.45,.93,1.18,1.46,1.99,1.68,11.14,34.97,23.43,69.54,34.9,104.41,13.03,39.58,25.05,79.56,33.76,120.34,1.06,4.98,2.11,9.95,3.2,14.92,.86,3.89,5.38,6.17,9.08,5.15,4.17-1.15,5.81-5.13,5.15-9.08-3.4-20.43-8.58-40.64-13.99-60.61-5.42-20.02-11.45-39.88-17.79-59.63-5.55-17.26-11.26-34.48-17.08-51.66,5.63-1.27,11.2-2.88,16.71-4.47,8.53-2.47,17-5.22,25.27-8.47,16.22-6.38,31.89-14.59,44.79-26.48,7-6.45,13.56-14.13,17.7-22.76,2.01-4.19-3.7-7.63-6.27-3.66Z"/><path class="e" d="M292,244.2c-.8-.75-1.99,.44-1.2,1.2,9.19,8.83,14.72,20.42,16.55,32.95,.15,.99,1.87,.77,1.77-.24-1.31-12.9-7.7-25.09-17.12-33.91Z"/><path class="e" d="M312.03,254.43c-3.1-6.72-6.62-13.25-9.98-19.84-.5-.99-1.96-.12-1.48,.87,3.26,6.65,6.37,13.38,9.89,19.89,.56,1.04,2.05,.13,1.57-.92Z"/><path class="e" d="M23.45,337.63c-1.28-6.83-3.44-13.51-5.16-20.23-.27-1.06-1.9-.61-1.64,.45,1.65,6.74,2.88,13.65,4.98,20.28,.37,1.17,2.05,.68,1.82-.5Z"/><path class="e" d="M33.44,331.03c-.18-.87-.56-1.74-.84-2.58-.26-.8-.58-1.58-.87-2.37-.6-1.64-1.24-3.27-1.86-4.9-.17-.46-.62-.78-1.12-.64-.46,.13-.79,.65-.64,1.12,.56,1.68,1.1,3.37,1.68,5.05,.29,.85,.56,1.71,.89,2.54,.33,.83,.56,1.73,.97,2.52,.53,1.02,1.98,.29,1.77-.75Z"/><path class="e" d="M175.83,79.15c-4.99-10.19-10.69-20.07-16.06-30.06-.51-.94-1.93-.11-1.44,.84,5.28,10.04,10.29,20.29,15.95,30.13,.58,1.01,2.05,.12,1.55-.9Z"/><path class="e" d="M165.4,96c-1.6-7.87-3.66-15.63-5.64-23.41-.29-1.15-2.03-.66-1.77,.49,1.76,7.83,3.44,15.69,5.58,23.43,.33,1.18,2.06,.68,1.82-.5Z"/><path class="e" d="M232.34,114.67c-.95-.66-1.81,.87-.9,1.54,7.57,5.52,13.98,12.53,18.74,20.6,4.74,8.04,7.39,16.72,8.88,25.88,.17,1.03,1.93,.8,1.84-.25-1.64-18.94-13.06-37.07-28.56-47.77Z"/><path class="e" d="M250.8,179.7c-.28-.84-.56-1.69-.84-2.53-.56-1.65-1.14-3.3-1.71-4.95-.39-1.12-2.16-.65-1.79,.49,.54,1.69,1.08,3.39,1.64,5.07,.27,.81,.55,1.62,.82,2.43,.3,.88,.55,1.8,.95,2.65,.2,.41,.77,.55,1.16,.38,.44-.19,.63-.63,.54-1.1-.17-.83-.51-1.64-.77-2.45Z"/><path class="e" d="M176.98,244.64c-.24-1.11-1.93-.64-1.7,.47,3.59,17.81,7.08,35.71,11.22,53.41,.27,1.17,2,.67,1.78-.49-3.36-17.86-7.39-35.64-11.3-53.39Z"/><path class="e" d="M205.45,297.8c-9.15-17.33-14.87-36.44-15.99-56.06-.06-1.04-1.68-1.05-1.63,0,.96,19.98,6.18,39.52,16.02,56.99,.59,1.05,2.16,.12,1.6-.94Z"/><path class="e" d="M65.86,480.51c-19.81-16.44-31.74-40.69-31.6-66.56,0-1.1-1.68-1.1-1.71,0-.54,25.95,11.52,52.15,32.16,68.05,.85,.65,1.98-.8,1.15-1.49Z"/><path class="e" d="M80.21,475.87c-15.35-15.8-26.93-34.26-32.53-55.71-.29-1.12-2-.64-1.73,.48,5.13,21.31,16.3,42.02,32.76,56.73,1.01,.9,2.46-.51,1.5-1.5Z"/><path class="e" d="M156.27,496.22c-1.07-1.58-2.5-2.95-3.77-4.37-1.34-1.49-2.69-2.97-4.05-4.45-2.67-2.92-5.41-5.76-8.13-8.63-.81-.86-2.04,.41-1.28,1.28,2.56,2.95,5.08,5.92,7.69,8.83,1.26,1.41,2.53,2.82,3.8,4.21,1.33,1.46,2.6,3.11,4.13,4.37,.83,.69,2.32-.21,1.62-1.25Z"/><path class="e" d="M169.63,486.21c-1.62-2.31-3.24-4.61-4.99-6.83-1.73-2.19-3.53-4.32-5.27-6.51-.66-.84-2.12,.27-1.49,1.15,1.62,2.28,3.16,4.61,4.78,6.88,1.64,2.3,3.4,4.49,5.16,6.69,.81,1.01,2.55-.32,1.8-1.39Z"/><path class="e" d="M243.99,441.11c-7.3-11.07-14.47-22.13-20.64-33.89-6.26-11.94-11.68-24.31-16.28-36.98-.37-1.01-1.99-.58-1.63,.45,8.76,25.11,20.78,50.11,36.83,71.42,.75,.99,2.43,.09,1.71-1Z"/><path class="e" d="M262.09,426.8c-1.24-2.74-3.2-5.25-4.8-7.8-1.63-2.59-3.24-5.19-4.78-7.82-3.09-5.27-6.01-10.65-8.71-16.14-5.51-11.18-10.05-22.73-14.21-34.46-.42-1.18-2.23-.72-1.9,.52,3.22,12.07,7.83,23.81,13.23,35.07,2.71,5.66,5.64,11.22,8.8,16.64,3.02,5.18,6.06,11.3,10.3,15.59,1.12,1.13,2.67-.3,2.08-1.6Z"/></g></g></g></svg>