<?xml version="1.0" encoding="UTF-8"?><svg xmlns="http://www.w3.org/2000/svg" viewBox="0 0 453.9 506.07"><defs><style>.d{fill:#c53817;}.e{fill:#de842b;}</style></defs><g id="a"/><g id="b"><g id="c"><g><path class="e" d="M386.04,325.03c4.07-3.42,6.59-8.8,8.77-13.83,11.03-25.45,59.99-83.89,43.69-112.68-14.17-25.03-84.84-16.87-110.95-23.82,14.78-11.69,35.16-13.09,53.94-11.58,18.78,1.51,37.69,5.41,56.3,2.43,4.74-.76,9.85-2.26,12.47-6.28,2.05-3.14,2.12-7.14,2.1-10.89-.07-14.36-.41-28.72-1.02-43.06-.09-2.07-.24-4.3-1.58-5.88-1.85-2.18-5.13-2.23-7.99-2.11l-56.32,2.41c12.19-13.66,29.06-23.06,47.08-26.26,5.45-.97,11.32-1.52,15.61-5.01,7.12-5.78,6.66-16.84,3.75-25.55-7.97-23.87-4.56-38.71-34.36-41.12-19.55-1.58-39.33-3.15-58.67,.09-19.34,3.23-38.51,11.82-50.63,27.23,15.27,22.38,8.24,56.8-14.57,71.41-2.93-1.35-5.85-2.71-8.78-4.06-8.15-14.82-10.32-32.64-20.18-46.4-27.81-38.78-117.67,6.76-92.61,56.42,7.44,14.74,20.05,26.07,30.56,38.8,10.51,12.74,19.37,28.66,16.9,44.98-.37,2.43-1.04,4.93-2.67,6.76-4.97,5.59-14.16,1.6-20-3.07-31.81-25.41-49.99-62.34-54.86-101.68C89.5,107.59,24.99,141.76,5.96,196.82c-23.19,67.08,25.63,149.26,71.33,195.28,2.32,2.33,4.69,4.62,7.11,6.85,28.27,26.04,66.19,44.74,98.32,65.84,20.66,13.56,42.81,27.61,67.53,28,24.71,.39,51.39-19.26,48.72-43.83-8.63-.39-17.9-2.87-23.06-9.8s-3.36-19.01,4.88-21.61c10-3.16,17.94,8.27,27.05,13.46,11.14,6.34,25.79,2.85,35.87-5.06,15.06-11.81,29.51-39.04,35.85-57.06,2.82-8.01,1.84-17.99-4.6-23.52-4.16-3.57-9.8-4.74-15.14-5.98-21.49-4.95-42.3-12.83-61.69-23.33-2.72-1.47-5.67-3.33-6.36-6.35-.9-3.96,2.91-7.73,6.92-8.37,4.01-.63,8,.94,11.76,2.49,16.94,6.96,33.88,13.92,50.82,20.88,6.66,2.74,14.2,5.49,20.85,2.72,1.45-.6,2.75-1.43,3.92-2.41Zm-295.07-49.92c-6.06-2.83-8.7-9.89-10.42-16.35-4.38-16.47-6.51-33.54-6.31-50.58,.18-15.2,5.11-33.81,19.94-37.11,12.96-2.88,25.04,8.61,30.01,20.92,6.14,15.19-.49,98.4-33.23,83.12Zm199.23-64.73c11.77-6.67,26.87-7.75,38.48-.06,17.66,11.7,25.36,33.44,30.97,53.86,1.89,6.89,3.54,14.79-.4,20.75-5.74,8.7-18.81,7.3-28.71,4.05-22.95-7.54-61.2-20.68-59.03-50.95,.86-12.01,8.54-21.9,18.69-27.65Z"/><path class="d" d="M253.87,399.03c-19.65-.94-39.02-2.34-58.34-6.26-19.05-3.87-37.7-9.57-55.63-17.08-9.21-3.86-18.06-8.36-26.96-12.84,9.36-10.73,19-21.22,28.97-31.43,21.23-21.76,43.48-42.53,65.86-63.11,6.79,1.55,13.59,3.09,20.42,4.52,7.48,1.56,15,3.38,22.56,4.49,4.54,.67,5.88-5.82,1.42-6.98-7.39-1.93-15.02-3.2-22.52-4.69-5.25-1.04-10.51-2.01-15.77-2.96,2.21-2.02,4.41-4.05,6.62-6.07,26.91-24.65,53.85-49.3,79.63-75.15,12.89-12.93,25.52-26.16,37.63-39.83,.55,.65,1.4,1.08,2.56,1.02,13.33-.62,27.22-4.22,38.8-11.01,3.37-1.98,.7-7.92-2.98-6.3-5.84,2.57-11.67,5.11-17.8,6.91-5.01,1.47-10.21,2.61-15.4,3.44,9.91-11.44,19.46-23.18,28.46-35.36,2.65-3.58,5.22-7.21,7.77-10.86,2.45-3.51-2.43-8.08-5.06-4.53-21.49,29.08-45.35,56.33-70.66,82.14-13.53,13.8-27.44,27.2-41.55,40.4-4.64-15.19-1.01-30.92,.16-46.42,1.31-17.29-1.6-34.52-9.25-50.15-4.27-8.73-9.93-16.68-16.64-23.71-2.93-3.07-7.17,1.81-4.37,4.88,11.24,12.32,18.94,28.09,21.9,44.49,2.95,16.33-.42,32.14-1.51,48.43-.6,8.9-.23,18.14,3.08,26.53,.21,.54,.5,.97,.84,1.33-10.78,10.01-21.65,19.91-32.55,29.78-13.59,12.3-27.25,24.52-40.82,36.84,1.95-33.32-5.42-67.36-22.31-96.26-2.22-3.8-7.68-.13-5.68,3.66,15.3,28.98,22.89,61.68,20.48,94.46-.11,1.46,.35,2.86,1.41,3.7-11.35,10.34-22.62,20.77-33.71,31.38-13.06,12.49-26.13,25.04-38.58,38.14-.81,.85-1.61,1.69-2.42,2.54-21.06-27.14-37.45-57.72-48.02-90.44-3.1-9.6-5.77-19.37-8.02-29.21-1-4.34-7.3-2.12-6.49,2.09,6.78,35.39,21.02,69.48,40.33,99.85,5.16,8.11,10.76,15.93,16.72,23.48-9.58,10.09-19.04,20.25-27.76,31.12-22.52,28.04-42.32,58.49-57.77,91-2.07,4.36-3.65,8.55-4.75,13.26-.73,3.14,1.31,6.46,4.3,7.43,3.36,1.1,6.07-.44,7.96-3.22,5.05-7.46,8.39-15.93,12.53-23.93,4.03-7.79,8.31-15.45,12.81-22.97,8.94-14.96,18.61-28.97,29.02-42.95,11.28-15.14,23.04-29.87,35.3-44.18,16.65,10.07,35.29,17.44,53.72,23.42,19.08,6.19,38.79,10.48,58.72,12.76,11.16,1.28,22.5,2.14,33.74,1.68,4.79-.2,4.19-7.07-.4-7.28Z"/><path class="d" d="M100.7,134.52c-26.61,7.9-50.05,25.6-64.47,49.39-.63,1.04,1.05,1.86,1.69,.84,14.54-23.18,37.03-40.74,63.27-48.68,1.01-.3,.5-1.85-.5-1.55Z"/><path class="d" d="M53.28,188.9c1.46-7.7,6.9-14.31,14.61-16.39,1.03-.28,.51-1.82-.51-1.57-8.07,1.99-15.02,9.17-15.87,17.6-.11,1.13,1.55,1.53,1.77,.36Z"/><path class="d" d="M207,68.89c-9.76,3.83-18.52,10.02-25.23,18.09-.75,.9,.59,2.11,1.37,1.22,6.71-7.66,14.98-13.74,24.39-17.66,1.02-.42,.51-2.06-.53-1.65Z"/><path class="d" d="M203.62,92.44c-6.02,1.28-11.22,5.27-13.91,10.81-.56,1.15,1.2,2.03,1.79,.89,2.52-4.98,7.22-8.75,12.66-10.03,1.1-.26,.55-1.89-.54-1.66Z"/><path class="d" d="M380.58,250.97c7.01-12.94,13.78-26.03,20.59-39.08,.5-.95-.98-1.68-1.49-.74-6.96,12.97-13.98,25.93-20.74,39-.54,1.05,1.08,1.85,1.64,.82Z"/><path class="d" d="M401.36,247.36c5.13-10.32,9.83-20.85,14.7-31.29,.45-.96-1.02-1.7-1.48-.74-4.97,10.39-10.12,20.71-14.83,31.23-.47,1.06,1.1,1.85,1.62,.8Z"/><path class="d" d="M386.45,38.23c-12.66-5.5-27.71-6.04-40.52-.64-1.18,.5-.61,2.37,.62,1.91,12.63-4.77,26.59-4.97,39.14,.27,1.01,.42,1.78-1.09,.76-1.54Z"/><path class="d" d="M372.62,48.2c-4.28,.46-8.56,.91-12.84,1.41-4.27,.49-8.58,.87-12.84,1.54-1.22,.19-1.17,2.05,.11,1.95,4.29-.34,8.57-.98,12.84-1.5,4.28-.52,8.55-1.08,12.83-1.63,1.12-.14,1.04-1.89-.1-1.76Z"/><path class="d" d="M359.59,347.69c.1-1.07-1.55-1.43-1.66-.34-1.26,11.71-6.44,22.36-14.46,30.93-.82,.88,.54,2.08,1.38,1.24,8.47-8.41,13.63-19.99,14.74-31.83Z"/><path class="d" d="M326.58,389.82c.78-.89-.57-2.09-1.37-1.22-2.97,3.27-5.95,6.53-8.85,9.86-.79,.91,.58,2.14,1.4,1.25,2.99-3.25,5.9-6.57,8.82-9.89Z"/><path class="d" d="M206.34,304.41c-18.78,13.48-35.9,31.13-47.11,51.49-.59,1.07,1.03,1.81,1.66,.83,6.28-9.77,12.78-19.16,20.63-27.77,7.78-8.54,16.42-16.3,25.72-23.15,.86-.63-.03-2.04-.91-1.41Z"/><path class="d" d="M202.99,328.17c-9.68,3.69-18.04,11.78-21.07,21.84-.3,1.01,1.37,1.6,1.77,.61,3.68-9.35,10.36-17.05,19.81-20.88,.98-.39,.49-1.95-.51-1.57Z"/></g></g></g></svg>