<?xml version="1.0" encoding="UTF-8"?><svg xmlns="http://www.w3.org/2000/svg" xmlns:xlink="http://www.w3.org/1999/xlink" viewBox="0 0 528.89 610.71"><defs><style>.e{fill:#e95e31;}.f{fill:url(#d);}.g{fill:#010101;}</style><linearGradient id="d" x1="82.44" y1="123.35" x2="461.45" y2="502.36" gradientTransform="matrix(1, 0, 0, 1, 0, 0)" gradientUnits="userSpaceOnUse"><stop offset="0" stop-color="#8170b1"/><stop offset=".99" stop-color="#ec5f82"/></linearGradient></defs><g id="a"/><g id="b"><g id="c"><path class="f" d="M264.45,610.71L0,458.04V152.68L264.45,0l264.45,152.68V458.04l-264.45,152.68ZM15.64,449l248.8,143.65,248.8-143.65V161.71L264.45,18.06,15.64,161.71V449Z"/><g><g><path class="g" d="M126.48,202.53h33.08v61.92c11.18-14.75,26.15-15.2,31.97-15.2,27.49,0,49.18,21.68,49.18,59.68,0,42.25-24.59,57-47.17,57-5.81,0-23.69-.45-33.98-18.11-.22,3.58-.45,8.94-1.12,15.87h-31.97V202.53Zm56.11,68.85c-24.36,0-24.36,27.72-24.36,34.87,0,25.71,10.95,38,25.93,38,22.8,0,22.8-28.39,22.8-34.2,0-8.94-.45-38.67-24.37-38.67Z"/><path class="g" d="M326.76,362.13c-10.73,2.91-20.34,3.58-25.71,3.58-33.31,0-33.31-21.01-33.31-30.4v-61.92h-21.68v-21.91h21.68v-22.13l32.86-12.07v34.2h26.82v21.91h-26.82v50.97c.22,10.28,.22,16.77,14.98,16.77,4.92,0,7.15-.22,11.18-.67v21.68Z"/><path class="g" d="M450.6,251.26c-.89,8.94-1.56,16.54-1.56,27.94v83.38c0,41.58-34.65,45.6-56.33,45.6-16.09,0-47.61-2.01-49.62-36.21h31.74c.45,3.35,2.01,15.65,19.67,15.65,9.84,0,18.33-4.69,20.56-14.75,1.34-5.59,1.34-9.61,1.57-26.82-10.51,13.86-22.35,15.42-30.4,15.42-32.41,0-47.61-28.16-47.61-55.44,0-28.61,15.87-55.88,48.28-55.88,20.57,0,28.17,11.18,31.52,16.09l1.12-14.98h31.07Zm-56.78,87.62c23.25,0,23.25-27.27,23.25-32.19,0-12.74-2.46-34.42-22.58-34.42-12.52,0-22.8,9.61-22.8,33.75,0,5.59,0,32.86,22.13,32.86Z"/></g><rect class="e" x="78.3" y="330.96" width="32.75" height="32.75"/></g></g></g></svg>