<?xml version="1.0" encoding="UTF-8"?><svg xmlns="http://www.w3.org/2000/svg" viewBox="0 0 547.75 485.97"><defs><style>.d{fill:#de842b;}</style></defs><g id="a"/><g id="b"><g id="c"><path class="d" d="M326.93,334.54c29.95,7.8,63.84-1.16,102.75-17.87,38.91-16.71,75.89-41.23,118.07-44.95-75.7-.06-151.4,12.4-223.09,36.72,70.24-46.58,137.29-97.97,200.53-153.69-84.39,13.92-151.76,75.6-213.77,134.51,42.35-44.99,59.25-107.55,74.69-167.37,10.49-40.63,20.97-81.26,31.46-121.89-67.21,76.38-109,174.76-117.3,276.16-2.23-98.34-37.08-195.68-97.79-273.08,8.57,95.22,46.21,185.07,83.39,273.15-61.19-71.37-130.51-135.76-206.2-191.52,46.73,81.64,114.59,151.07,195.15,199.65-90.12-19.13-182.84-26.01-274.8-20.38,75.95,62.44,183.45,63.74,281.76,62.01-84.82,13.65-167.87,38.25-246.43,73.01,85.73-9.85,170.22-30.45,250.86-61.18-71.06,35.57-134.42,86.44-184.49,148.15,77.26-38.6,140.81-82.68,199.49-146.06-26.4,47.15-44.22,86.79-66.66,135.95,36.31-33.83,69.15-62.24,89-107.72,8-18.33,3.41-33.6,3.41-33.6Z"/></g></g></svg>