<?xml version="1.0" encoding="UTF-8"?><svg xmlns="http://www.w3.org/2000/svg" xmlns:xlink="http://www.w3.org/1999/xlink" viewBox="0 0 298.12 801.35"><defs><style>.e{fill:#e39274;}.f{fill:#c53817;}.g{clip-path:url(#d);}.h{fill:none;}</style><clipPath id="d"><path class="h" d="M200.69,734.91c-3.53-21.74-7-43.48-10.5-65.23-.87-5.43-1.75-10.86-2.62-16.29-.1-1.64-.3-3.18-.76-4.74-1.01-6.26-2.01-12.51-3.02-18.77,38.67-6.07,73.39-46.57,89.36-105.46,5.05-18.62,8.31-38.7,11.54-58.69,4.48-27.66,8.96-55.32,13.44-82.98-4.34,8.79-6.52,20.17-9.46,30.63-11.85,42.17-35.78,68.77-58.03,95.43-20.72,24.81-42.51,53.22-51.22,93.91-3.44-21.37-6.88-42.75-10.31-64.12-.39-2.45-.79-4.91-1.18-7.36,20.78-21.82,41.33-45.95,55.12-80.25,5.83-14.5,10.36-30.64,13.4-47.76,3.36-18.94,4.88-38.93,6.4-58.82,2.3-30.28,4.61-60.56,6.91-90.84-14.31,51.42-32.04,99.67-52.77,143.62-15.21,32.25-33.51,67.29-30.88,110.68l1.54,21.56c-3.06-19-6.11-37.99-9.17-56.99-1.73-10.76-3.48-21.53-5.23-32.29-1.08-6.65-2.33-13.31-3.53-19.98,23.26-45.07,46.96-93.56,51.95-154.81,2.02-24.73-5.64-63.15,5.53-84.34-32.54,61.71-58.99,119.9-61.14,195.3l.46,10.6c-.39,1.6-.79,3.19-1.17,4.79-2.06-15.95-3.57-31.84-4.93-47.68-1.53-17.78-8.94-42.03-2.82-57.63,4.31-10.99,10.02-20.99,13.45-32.54,17.08-57.49,26.15-128.28,10.02-191.62-6.82,53.26-15.31,105.85-26.75,156.1l-.72,30.71c-.13,.58-.25,1.16-.37,1.74-1.26-20.22-2.43-40.41-3.63-60.62,.11,.13,.21,.27,.32,.4l4.46-32.35c4.51-52.5-.28-108.56-15.16-158.23-2.13,21.17-4.27,42.33-6.4,63.5-2.23,22.08-4.46,44.58-2.67,67.4,1.32,16.86,5.21,34.14,11.79,47.37,.28,7.33,.56,14.66,.91,22.01,1.01,21.33,2.36,42.72,3.01,63.97,.05,1.7,.12,3.4,.17,5.1-1.43-3.39-2.83-6.78-4.2-10.17-9.12-56.74-29.55-108.25-49.13-158.35,7.21,31.2,10.41,64.12,16.57,95.84,6.12,31.53,15.97,63.33,32.26,82.31,1.64,4.01,3.29,8.18,5.32,12.22,1.39,32.62,3.62,65.38,7.68,98.48,.38,3.11,.77,6.22,1.15,9.33-.85-1.53-1.69-3.07-2.49-4.61l-9.04-32.97c-17.94-52.01-37.36-102.69-59.84-149.65-11.37-23.76-23.86-47.54-39.94-60.49,15.18,26.05,20.33,63.24,28.79,96.54,8.29,32.64,21,65.34,37.96,97.23,14.29,26.86,38.94,54.28,45.13,81.83,3.47,15.45,7.54,30.85,10.01,46.18,1.27,7.87,2.53,15.75,3.8,23.62,.81,5.01,6.1,19.88,3.8,23.62,.11,.67,.22,1.34,.32,2.01-.5-.72-1-1.43-1.49-2.15-.3-.43-.56-.87-.86-1.31l-6.08-16.02C104.27,415.71,55.35,338.61,0,278.97c7.84,24.13,15.69,48.25,23.53,72.38,8,24.6,16.18,49.62,27.93,69.63,10.43,17.77,23.2,30.75,35.79,43.5,20.71,20.97,46.83,40.69,62.31,65.13,8.82,13.93,9.99,26.32,12.27,40.46,3.21,19.94,6.41,39.88,9.62,59.81-2.67-2.27-5.4-4.48-8.02-6.79-1.41-1.24-2.8-2.51-4.17-3.79l-5.65-13.25c-21.36-54.35-59.71-81.04-91.24-118.2-22.62-26.66-42.94-59.47-59.83-96.63,13.29,99.17,60.98,187.45,118.02,218.5,18.66,10.16,38.39,16.48,47.78,35.04,8.96,17.7,10.01,36.09,10.88,53.42,1.34,26.59,2.69,53.19,4.03,79.78,.24,4.75,.54,9.69,3.17,14.41,2.64,4.72,8.36,9.1,13.65,8.95,7.59-.23,8.9-8.75,6.92-15.71-4.89-17.18-3.47-33.22-6.31-50.72Z"/></clipPath></defs><g id="a"/><g id="b"><g id="c"><g><path class="e" d="M200.69,734.91c-3.53-21.74-7-43.48-10.5-65.23-.87-5.43-1.75-10.86-2.62-16.29-.1-1.64-.3-3.18-.76-4.74-1.01-6.26-2.01-12.51-3.02-18.77,38.67-6.07,73.39-46.57,89.36-105.46,5.05-18.62,8.31-38.7,11.54-58.69,4.48-27.66,8.96-55.32,13.44-82.98-4.34,8.79-6.52,20.17-9.46,30.63-11.85,42.17-35.78,68.77-58.03,95.43-20.72,24.81-42.51,53.22-51.22,93.91-3.44-21.37-6.88-42.75-10.31-64.12-.39-2.45-.79-4.91-1.18-7.36,20.78-21.82,41.33-45.95,55.12-80.25,5.83-14.5,10.36-30.64,13.4-47.76,3.36-18.94,4.88-38.93,6.4-58.82,2.3-30.28,4.61-60.56,6.91-90.84-14.31,51.42-32.04,99.67-52.77,143.62-15.21,32.25-33.51,67.29-30.88,110.68l1.54,21.56c-3.06-19-6.11-37.99-9.17-56.99-1.73-10.76-3.48-21.53-5.23-32.29-1.08-6.65-2.33-13.31-3.53-19.98,23.26-45.07,46.96-93.56,51.95-154.81,2.02-24.73-5.64-63.15,5.53-84.34-32.54,61.71-58.99,119.9-61.14,195.3l.46,10.6c-.39,1.6-.79,3.19-1.17,4.79-2.06-15.95-3.57-31.84-4.93-47.68-1.53-17.78-8.94-42.03-2.82-57.63,4.31-10.99,10.02-20.99,13.45-32.54,17.08-57.49,26.15-128.28,10.02-191.62-6.82,53.26-15.31,105.85-26.75,156.1l-.72,30.71c-.13,.58-.25,1.16-.37,1.74-1.26-20.22-2.43-40.41-3.63-60.62,.11,.13,.21,.27,.32,.4l4.46-32.35c4.51-52.5-.28-108.56-15.16-158.23-2.13,21.17-4.27,42.33-6.4,63.5-2.23,22.08-4.46,44.58-2.67,67.4,1.32,16.86,5.21,34.14,11.79,47.37,.28,7.33,.56,14.66,.91,22.01,1.01,21.33,2.36,42.72,3.01,63.97,.05,1.7,.12,3.4,.17,5.1-1.43-3.39-2.83-6.78-4.2-10.17-9.12-56.74-29.55-108.25-49.13-158.35,7.21,31.2,10.41,64.12,16.57,95.84,6.12,31.53,15.97,63.33,32.26,82.31,1.64,4.01,3.29,8.18,5.32,12.22,1.39,32.62,3.62,65.38,7.68,98.48,.38,3.11,.77,6.22,1.15,9.33-.85-1.53-1.69-3.07-2.49-4.61l-9.04-32.97c-17.94-52.01-37.36-102.69-59.84-149.65-11.37-23.76-23.86-47.54-39.94-60.49,15.18,26.05,20.33,63.24,28.79,96.54,8.29,32.64,21,65.34,37.96,97.23,14.29,26.86,38.94,54.28,45.13,81.83,3.47,15.45,7.54,30.85,10.01,46.18,1.27,7.87,2.53,15.75,3.8,23.62,.81,5.01,6.1,19.88,3.8,23.62,.11,.67,.22,1.34,.32,2.01-.5-.72-1-1.43-1.49-2.15-.3-.43-.56-.87-.86-1.31l-6.08-16.02C104.27,415.71,55.35,338.61,0,278.97c7.84,24.13,15.69,48.25,23.53,72.38,8,24.6,16.18,49.62,27.93,69.63,10.43,17.77,23.2,30.75,35.79,43.5,20.71,20.97,46.83,40.69,62.31,65.13,8.82,13.93,9.99,26.32,12.27,40.46,3.21,19.94,6.41,39.88,9.62,59.81-2.67-2.27-5.4-4.48-8.02-6.79-1.41-1.24-2.8-2.51-4.17-3.79l-5.65-13.25c-21.36-54.35-59.71-81.04-91.24-118.2-22.62-26.66-42.94-59.47-59.83-96.63,13.29,99.17,60.98,187.45,118.02,218.5,18.66,10.16,38.39,16.48,47.78,35.04,8.96,17.7,10.01,36.09,10.88,53.42,1.34,26.59,2.69,53.19,4.03,79.78,.24,4.75,.54,9.69,3.17,14.41,2.64,4.72,8.36,9.1,13.65,8.95,7.59-.23,8.9-8.75,6.92-15.71-4.89-17.18-3.47-33.22-6.31-50.72Z"/><g class="g"><path class="f" d="M204.39,586.97c-5.77,7.15-12.41,13.94-16.81,22.01-4.01,7.37-6.06,16.51-1.23,25.95,1.77,3.47,5.97,6.02,9.59,4.68,36.85-13.7,61.63-41.64,79.21-72.31,17.79-31.02,28.74-66.15,32.25-103.37,1.98-21.02,2.31-43.08-1.31-65.25-.26-1.59-1.1-2.88-2.2-3.87,.86-4.36,1.71-8.73,2.63-13.07,.7-3.28-5.36-5.42-6.25-2.26-1.27,4.53-2.64,9.02-4.01,13.51-1.49,.58-2.49,1.88-2.31,4,.08,.97,.16,1.93,.24,2.9-.77,2.59-1.52,5.2-2.23,7.82-2.5,9.27-5.01,18.52-7.97,27.59-3.04,9.29-6.05,18.59-9.28,27.79-3.08,8.76-6.7,17.27-10.19,25.83-7.24,17.77-15.7,34.92-25.85,51.08-10.3,16.4-22.07,31.85-34.27,46.97h0Z"/><path class="f" d="M242.78,444.64c15.79-31.65,26.87-66.02,27.24-103.77,.19-19.91-2.88-40.52-9.69-61.15-.77-2.33-3.39-4.2-5.96-4.8,.77-9.13,1.38-18.31,1.9-27.48,.19-3.28-5.78-5.58-6.13-2.22-2.1,19.86-5.6,39.17-9.57,58.4-3.98,19.23-8.55,38.22-13.97,56.89-5.35,18.44-11.59,36.52-18.59,54.21-7.2,18.2-15.94,35.56-23.81,53.41-8.81,19.99-14.52,41.34-16.2,64.14-.39,5.26,6.56,9.73,11.1,6.81,8.25-5.3,14.12-12.84,19.32-20.58,5.34-7.95,10.47-16.05,15.61-24.13,10.27-16.16,20.18-32.56,28.75-49.72Z"/><path class="f" d="M181.4,388.95c5.96-13.08,11.64-26.31,17.25-39.56,5.57-13.16,11.41-26.33,14.04-40.78,2.4-13.14,2.42-27.09,1.17-41.13-.7-7.89-1.81-15.85-3.11-23.82-1.34-8.19-2.62-16.38-5.08-24.63-.07-.23-.18-.46-.3-.68,1.54-14.13,3.53-28.19,10.11-40.23,1.6-2.93-3.9-6.26-5.88-3.6-8.69,11.66-11.34,26.48-13.89,41.06-.85,.75-1.31,1.84-1.2,3.17,.06,.75,.17,1.51,.24,2.26-2.94,16.35-6.3,32.55-10.01,48.62-7.54,32.65-16.83,64.61-26.08,96.58-2.54,8.76-5.12,17.51-7.51,26.33-2.29,8.45-4.05,17.27-2.62,26.76,.69,4.59,7.43,8.11,10.95,5.32,11.32-8.99,16.17-23.03,21.93-35.65Z"/><path class="f" d="M147.69,281.76c.93-3.67,1.83-7.36,2.71-11.06,1.7-7.17,3.29-14.38,4.78-21.63,1.98-9.59,3.75-19.26,5.37-28.98,.97-.08,1.84-.46,2.36-1.23,.81-1.19,1.25-2.62,1.75-3.98,.55-1.51,1.31-2.89,1.79-4.46,.88-2.85,1.64-5.7,2.23-8.67,1.18-5.88,2.16-11.87,2.86-17.91,1.41-12.13,1.38-24.61,1.36-37.09,0-3.47-.16-6.97-.22-10.44-.03-1.68-.11-3.37-.19-5.06-.1-1.97-.59-3.9-.8-5.87-.11-.97-.86-1.78-1.77-2.28,.06-3.25,.12-6.5,.13-9.77,.03-8.74-.08-17.51-.34-26.3-.26-8.76-.12-17.59-1.24-26.5-.35-2.74-5.53-4.26-5.74-1.43-.56,7.53-.22,15.32-.45,22.94-.23,7.69-.49,15.38-.97,23.01-.95,15.23-2.01,30.43-3.35,45.55-2.68,30.16-6.89,59.92-12.68,89.08-1.62,8.17-3.37,16.3-5.25,24.38-.94,4.04-1.91,8.06-2.92,12.08-1.05,4.2-2.27,8.4-1.51,13.1,.61,3.74,5.6,5.1,7.65,2.79,2.5-2.83,3.52-6.56,4.46-10.25Z"/><path class="f" d="M135.1,181.63c1.52-3.97,3.16-7.86,3.26-10.71,.29-8.01,.16-16.32,.42-24.43,.38-11.89,.42-23.87,.12-35.91-.29-11.9-.95-23.95-2.3-36.03-1.35-12.11-3.32-24.3-5.13-36.47-1.02-6.87-2.05-13.74-3.28-20.63-1.24-6.96-2.29-14.06-4.51-21.07-.97-3.08-5.94-2.96-5.76-.15,.38,5.92,1.64,12.03,2.54,18.03,.92,6.14,1.85,12.29,2.6,18.41,1.48,12.04,2.28,23.91,2.85,35.8,1.77,36.92,1.22,73.2,4.12,110.29,.41,5.2,.84,10.49,2.95,15.76-1.33-3.32,.31-8.16,2.12-12.89Z"/><path class="f" d="M120.14,281.94c-.34-1.46-.31-2.78-.53-4.21-.25-1.67-.83-3.36-1.45-5.03-1.1-2.93-2.22-5.85-3.29-8.78-2.14-5.86-4.13-11.72-6.04-17.59-3.82-11.76-7.16-23.48-10.39-35.24-3.16-11.5-6.05-23-9-34.49-3.24-12.58-6.93-25.15-9.99-37.73-3.46-14.23-6.85-28.48-11.07-42.72-.9-3.05-6.46-3.19-5.92-.16,2.23,12.57,5.14,25.2,8.04,37.82,1.45,6.31,2.83,12.62,4.21,18.94,1.38,6.3,2.36,12.57,3.72,18.87,5.14,23.79,10.49,47.55,17.38,71.4,1.91,6.61,4.08,13.22,6.39,19.82,1.11,3.18,2.29,6.35,3.5,9.52,.74,1.94,1.51,3.84,2.62,5.72,.96,1.62,2.27,3.05,3.24,4.68,2.33,3.88,9.54,3.34,8.57-.79Z"/><path class="f" d="M121.09,379.75c-3.07-8.2-6.18-16.39-9.32-24.58-6.43-16.77-12.98-33.52-19.68-50.26-6.64-16.62-13.43-33.22-20.38-49.8-6.95-16.6-14.67-33.11-22.41-49.6-4.35-9.26-8.51-18.55-12.84-27.82-4.4-9.41-8.93-18.77-13.6-28.14-1.72-3.45-7.37-3.06-5.91,.55,6.62,16.34,13.52,32.64,20.24,48.98,2.46,5.98,4.82,11.97,7.16,17.96-.48-.44-.97-.87-1.48-1.29-4.56-3.69-10.65-2.65-10.38,2.34,1.3,24.2,8.44,49.26,18.15,73.8,9.63,24.33,22.02,48.44,36.77,71.77,8.25,13.05,17.28,25.85,27.01,38.34,2.82,3.62,9.08,5.22,10.95,1.59,3.54-6.83-1.34-15.99-4.28-23.84Z"/><path class="f" d="M154.65,537.6c-4.76-8.77-11.02-17.07-16.86-25.5-5.88-8.5-11.51-17.09-16.96-25.73-10.97-17.42-21.19-35.06-31.26-52.73-10.36-18.18-20.54-36.42-31.02-54.57-10.42-18.05-21.02-36.06-31.3-54.15-5.62-9.89-11.15-19.8-16.53-29.75-4.25-7.86-8.71-15.65-13.19-23.45,1.07-2.49,.14-5.74-3.15-7.76-.87-.53-1.87-.88-2.87-1.07-.85-.33-1.77-.32-2.54-.07-1.35,.2-2.5,.8-3,1.91-7.84,17.31-2.22,38.29,3.52,58.44,6.11,21.44,12.44,42.97,21.82,64.25,16.79,38.1,42.76,74.85,75.15,107.05,18.24,18.13,38.58,34.75,60.35,49.38,2.44,1.64,5.78,1.6,7.5,.24,1.96-1.55,1.66-4.05,.34-6.49Z"/><path class="f" d="M158.07,638.91c-14.89-33.75-44.82-62.13-70.72-91.43-5.88-6.65-12.1-14.1-17.69-21.52-6.24-8.3-11.82-16.89-17.17-25.5-10.81-17.41-18.95-35.72-26.43-53.74-4.46-10.76-8.75-21.54-13.2-32.31-4.79-11.58-10.18-23.06-15.11-34.62-1.65-3.86-7.88-3.29-6.44,.6,1.39,3.73,2.7,7.47,4.01,11.2-2.38,.02-4.58,1.13-4.69,3.25-1.85,36.13-.92,73.69,13.05,111.78,6.32,17.25,15.3,34.54,27.21,50.54,13.13,17.65,29.74,33.09,48.5,46.5,21.94,15.69,46.04,28.2,70.09,40.11,2.46,1.22,4.89,1.75,6.89,.58,1.78-1.04,2.68-3.19,1.69-5.44Z"/></g></g></g></g></svg>