<?xml version="1.0" encoding="UTF-8"?><svg xmlns="http://www.w3.org/2000/svg" viewBox="0 0 326.58 305.97"><defs><style>.d{fill:#4a8684;}.e{fill:#de842b;}</style></defs><g id="a"/><g id="b"><g id="c"><g><g><path class="e" d="M180.81,229.83c24.2-2.86,73.48,10.32,57.68,45.22-5.5,12.15-17.8,19.87-30.33,24.42-52.54,19.09-110.81-6.8-155.75-40.04,15.86-12.34,25.75-30.58,36.53-47.54,10.78-16.96,23.92-33.93,42.74-40.96,31.81-11.88,75.55,44.77,54.13,53.46,0,0-6.14,2.49-6.14,2.49l1.14,2.94Z"/><path class="e" d="M238.02,154.84c12.03,16.47-14.65,24.7-26,18.78-8.84-4.61-14.31-40.55-16.07-49.48-3.46-17.53,10.05-118.56,3.92-124.14,31.81,28.99,60.45,61.47,85.23,96.67,9.44,13.4,18.66,28.33,18.27,44.71-1.13,48.12-42.77,23.49-61.27,15.67l-4.31-1.82,.24-.38Z"/><path class="d" d="M323.54,284.32c-2.54-.52-4.91-1.62-7.48-2.15-2.53-.52-4.98-1.33-7.36-2.32-4.66-1.93-8.35-4.21-12.53-7.32-8.51-6.33-15.1-13.12-20.57-22.74-3.53-6.23-5.98-12.95-8.65-19.57-2.68-6.63-5-13.39-6.95-20.27-3.93-13.89-6.34-28.09-9.06-42.26-3.07-16.02-5.62-32.21-9.47-48.06-1.13-4.64-8.2-4.12-7.58,.89,1.89,15.28,5.03,30.42,7.66,45.59,1.31,7.55,2.62,15.09,3.93,22.64,1.33,7.65,2.27,15.31,3.39,22.98,.08,.55,.18,1.1,.26,1.65-9.01-12.2-19.02-23.72-29.6-34.5-13.8-14.06-28.7-27.94-45.71-38.06-7.37-4.38-15.11-7.88-23.31-10.29-.29-3.12-1.09-6.18-2.43-8.9-3.81-7.72-11.31-13.06-19.34-15.71-15.08-4.98-35.83-4.15-47.74,7.59-6.34,6.25-8.28,14.75-7.3,23.41,.92,8.14,4.24,16.21,3.78,24.48-.65,11.88-11.02,22.71-22.82,24.15,1.01-3.47,1.35-7.1,.59-10.69-1.68-7.95-8.43-15.27-17.03-11.62-6.89,2.93-10.62,10.92-8.22,17.99,1.79,5.28,6.25,8.99,11.38,11.08-2.04,2.44-4.42,4.6-6.84,6.38-7.46,5.5-16.26,8.88-23.82,14.24-3.9,2.77-7.34,6.11-9.98,10.12-2.81,4.25,3.1,8.98,6.34,4.88,5.69-7.2,13.94-11.48,21.82-15.82,7.54-4.15,14.69-8.57,20.01-15.49,.58-.75,1.14-1.53,1.67-2.34,15.33,.53,29.99-10.44,34.26-25.12,2.33-8.03,.88-16-.84-23.99-1.54-7.13-3.61-15.42,.37-22.16,3.83-6.48,11.77-9.47,18.85-10.59,7.78-1.24,16.24-.77,23.65,2.01,6.52,2.45,12.8,7.07,14.56,14.11-7.32-.75-15.14,.58-19.18,7.26-4.31,7.13-2.33,17.48,6.67,19.45,8.15,1.78,15.9-4,19.29-11.02,.85-1.76,1.47-3.65,1.88-5.6,2.42,.74,4.81,1.6,7.15,2.57,17.52,7.28,32.44,19.95,46.23,32.71,12.61,11.68,24.28,24.38,34.95,37.86-.87-.49-1.73-.99-2.62-1.43-15.98-7.9-34.94-5.82-49.7,3.79-8.45,5.5-15.31,12.85-18.3,22.59-1.81,5.91,6.31,9.62,8.99,3.8,6.09-13.25,17.52-23.72,32.17-26.22,15.52-2.65,30.03,5.04,40.12,16.48,1.72,1.95,3.33,4.01,4.87,6.14,1.93,6.43,4.54,12.57,7.81,18.48,5.89,10.66,13.85,21.11,24.17,27.84,5.88,3.84,11.91,6.56,18.73,8.24,2.98,.74,6,1.25,9.07,1.43,3.93,.24,6.93-.67,10.65-1.74,3.69-1.06,2.3-6.22-.84-6.86ZM39.39,172.85c1.43-1.63,3.35-2.75,5.07-1.26,2.49,2.16,2.87,6.53,2.41,9.55-.19,1.21-.54,2.39-.96,3.54-5.22-1.93-11.08-6.63-6.52-11.83Zm89.4-27.56c-1.04-2.32,.37-5.51,2.28-6.9,2.94-2.15,6.92-2.17,10.56-1.67-.7,3.79-2.58,7.33-5.99,9.16-2,1.07-5.69,2.02-6.86-.58Z"/></g><path class="d" d="M121.29,216.2c6.14-5.37,12.95-9.14,21.05-10.64,3.87-.72,7.83-.9,11.75-.54,3.89,.36,8.96,.95,11.84,3.79,2.57,2.52,4.92-2.89,1.49-3.14-4.25-.32-8.28-2.08-12.57-2.55-4.19-.46-8.46-.29-12.61,.45-8.11,1.44-16.49,5.19-22.25,11.2-.86,.9,.35,2.28,1.31,1.45Z"/><path class="d" d="M133.34,229.57c6.34-5.85,14.62-9.02,23.28-8.32,1.09,.09,1.16-1.57,.08-1.69-8.87-.98-18.37,2.15-24.58,8.66-.79,.83,.35,2.14,1.21,1.34Z"/><path class="d" d="M176.12,277.68c12.85-.88,25.75-6.46,32.75-17.69,.6-.96-.86-1.92-1.48-.97-7.18,11.2-20.6,16.43-33.51,16.74-16.11,.39-30.95-6.47-45.51-12.43-1.19-.49-1.76,1.36-.62,1.88,14.98,6.81,31.58,13.61,48.37,12.47Z"/><path class="d" d="M168.02,258.29c1.06,.04,1.14-1.58,.08-1.64-6.61-.4-13.22-.93-19.84-1.08-1.16-.03-1.25,1.71-.09,1.8,6.6,.52,13.23,.66,19.85,.92Z"/><path class="d" d="M220.63,124.35c-.79-11.85-1.71-23.7-2.62-35.54-.88-11.57-1.49-23.2-2.75-34.73-.12-1.07-1.95-.92-1.9,.16,.55,11.86,1.78,23.72,2.72,35.55,.92,11.57,1.82,23.15,2.84,34.71,.08,.96,1.77,.83,1.7-.14Z"/><path class="d" d="M237.49,84.91c-1.81-5.66-3.8-11.27-5.74-16.89-.37-1.06-2.09-.71-1.73,.38,1.85,5.65,3.66,11.31,5.65,16.91,.39,1.11,2.2,.76,1.83-.41Z"/><path class="d" d="M271.17,137.61c4.41-3.39,6.96-9.13,7.76-14.51,.84-5.62-.33-11.47-3.48-16.21-.59-.89-2.08-.15-1.5,.78,2.79,4.43,3.77,9.76,3.08,14.92-.72,5.4-3.3,9.84-7.12,13.62-.87,.86,.31,2.13,1.26,1.4Z"/></g></g></g></svg>