<?xml version="1.0" encoding="UTF-8"?><svg xmlns="http://www.w3.org/2000/svg" viewBox="0 0 748.15 579.91"><defs><style>.d{fill:#c53817;}.e{fill:#345d5b;}</style></defs><g id="a"/><g id="b"><g id="c"><g><path class="e" d="M83.24,487.87c42.06,63.1,127.65,99.05,216.35,90.89,26.15-2.41,52.23-8.32,78.19-14.21,35.91-8.16,71.83-16.31,107.74-24.47-14.25-1.82-29.35,1.02-44.14,2.22-59.64,4.82-113.25-17.07-165.31-36.41-52.06-19.34-110.06-38.33-169.22-24.52l-23.61,6.5Z"/><path class="e" d="M189.16,422.79c45.2,19.76,92.82,37.96,145.5,40.34,22.22,1.01,45.04-.85,67.52-5.5,24.88-5.14,49.17-13.63,73.33-22.08,36.79-12.87,73.57-25.74,110.36-38.61-72.58,6.08-144.87,5.28-215.18-2.4-51.59-5.63-109.35-14.44-156.31,12.99l-25.22,15.26Z"/><path class="e" d="M293.31,334.54c4.82-3.45,33.46,4.8,40.02,5.64,14.26,1.84,28.54,3.45,42.88,4.58,28.75,2.28,57.74,2.73,86.44-.51,14.46-1.63,28.84-4.16,42.92-7.84,11.58-3.03,20.54-9.39,31.58-13.11,30.27-10.2,62.97-14.66,93.6-24.43-91.66-35.14-195.13-31.39-285.82,7.18l-51.62,28.48Z"/><path class="e" d="M427.46,240.33c17.87,8.58,40.39,8.49,62.02,7.12,82.19-5.18,171.78-29.66,228.36-88.34-67.4,18.44-135.65,33.98-204.1,43.8l-86.28,37.42Z"/><path class="e" d="M541.13,181.23c3.94-24.63,24.58-47.18,48.86-62.22,24.29-15.04,52.13-23.81,79.49-32.37,26.22-8.2,52.45-16.4,78.67-24.6-42.19,49.4-101.49,86.94-165.77,108.47l-41.25,10.71Z"/><path class="e" d="M435.09,223.02c-3.6,2.38-7.35,4.53-11.28,6.35,3.98-1.84,12.38-22.77,14.05-27.31,3.28-8.91,4.57-16.7,9.69-25.14,11.79-19.45,27.81-35.91,42.11-53.46,14.45-17.73,35.52-32.43,53.51-46.39,9.27-7.19,18.71-14.16,28.31-20.91,5.62-3.95,24.38-12.17,26.99-18.09-15.78,35.79-38.78,68.36-67.1,95.32-24.81,23.62-47.25,48.11-72.95,70.86-7.47,6.61-15.04,13.29-23.33,18.76Z"/><path class="e" d="M287.22,323.14c19.99-80.03,51.03-162.21,113.95-227.34,29.76-30.81,67.18-58.72,82.13-95.8,.85,31.37-14.13,63.14-30.17,93.22-31.71,59.45-70.63,116.28-112.53,171.57l-53.38,58.35Z"/><path class="e" d="M173.37,406.98l13.06-147.17c2.3-25.98,4.7-52.34,14.82-77.76,11.4-28.62,31.99-54.54,52.27-79.95,19.9-24.93,39.79-49.85,59.69-74.78-14.22,116.13-54.59,231.94-113.69,341.84l-26.15,37.81Z"/><path class="e" d="M60.99,489.39c11.35-32.44-1.01-64.33-7.12-95.83-20.05-103.25,34.28-223.24,134.49-296.97-25.97,45.68-43.64,94.21-52.06,142.9-11.73,67.88-4.88,140.43-46.1,202.18l-29.21,47.72Z"/><path class="d" d="M292.31,546.88c-38.04-12.22-76.26-23.87-114.46-35.59-18.93-5.81-37.84-11.64-56.7-17.65-11.27-3.59-23.13-8.27-34.92-8.1,12.75-12.02,25.91-23.62,39.43-34.81,8.89-7.36,17.88-14.67,27.06-21.7,4.93-1.09,9.87-2.12,14.87-2.92,9.33-1.49,18.75-2.53,28.18-3.12,19.08-1.19,38.22-.85,57.31,.1,38.6,1.93,77.05,6.38,115.71,7.08,21.49,.39,43.52,.03,64.69-4.02,2.85-.55,2.57-4.89-.42-4.57-19.36,2.01-38.61,3.38-58.09,3.26-19.46-.12-38.89-1.35-58.3-2.72-38.44-2.72-76.99-6.31-115.56-3.99-10.67,.64-21.32,1.68-31.88,3.32-2.42,.37-4.84,.78-7.27,1.2,3.88-3.31,7.28-7.28,10.27-11.6,28.08-21.6,56.92-42.22,86.3-62.03,4.36-2.94,8.73-5.84,13.11-8.75,.68,.15,1.45,.08,2.24-.34,.4-.21,.78-.45,1.17-.67,25.54-7.46,52.04-10.11,78.48-13.4,32.76-4.07,65.51-8.2,98.26-12.33,18.51-2.34,37.07-4.52,55.48-7.54,2.67-.44,2.36-4.46-.39-4.22-33.21,2.94-66.3,7.82-99.37,11.99-16.73,2.11-33.46,4.25-50.19,6.39-15.6,2-31.24,3.85-46.75,6.5-8.67,1.48-17.36,3.16-25.91,5.31,.24-.23,.48-.46,.71-.7,37.6-24.53,75.92-47.93,114.62-70.67,10.17-5.98,20.38-11.89,30.59-17.79,9.62-.71,19.24-1.87,28.8-2.99,12.61-1.47,25.19-3.15,37.74-5.03,25.11-3.77,50.08-8.36,74.88-13.81,13.7-3.01,27.59-5.9,41-10.04,2.24-.69,1.43-4.56-.92-4.07-12.41,2.57-24.68,5.89-37.05,8.66-12.22,2.73-24.49,5.26-36.79,7.62-24.77,4.75-49.7,8.69-74.72,11.81-7.95,.99-15.93,1.79-23.9,2.63,35.49-20.42,71.21-40.46,106.99-60.36,24.93-13.86,50.07-27.31,75.05-41.08,25.27-13.93,50.4-27.99,76.3-40.74,6.34-3.12,12.69-6.21,19.05-9.29,2-.97,.85-4.23-1.21-3.28-52.08,23.98-103.33,49.54-153.56,77.18-47.49,26.13-94.74,52.74-141.65,79.9-.12,.06-.23,.12-.33,.19-1.79,1.04-3.59,2.06-5.38,3.1-.72,.42-1.45,.85-2.17,1.27,4.89-4.81,9.62-9.8,14.27-14.76,10.05-10.72,19.65-21.82,28.87-33.24,18.24-22.59,35.73-45.83,55.29-67.32,11.1-12.2,22.99-23.36,35.16-34.46,2.21-2.01-.18-5.66-2.77-3.87-12.01,8.29-22.85,18.73-32.88,29.28-9.98,10.49-19.34,21.55-28.42,32.83-18.43,22.88-35.68,46.77-54.8,69.08-9.74,11.36-20.29,21.74-31.09,32.03-32.98,19.37-65.69,39.21-97.91,59.82,2.36-3.96,4.55-7.99,6.63-11.9,8.44-15.81,16.88-31.62,25.62-47.27,17.66-31.63,36.22-62.75,55.32-93.52,10.72-17.27,21.65-34.41,32.57-51.56,1.16-1.82-1.42-4.01-2.67-2.16-19.84,29.5-38.71,59.65-57.24,89.98-18.73,30.67-37.13,61.57-55.07,92.71-7.15,12.41-14.05,24.83-23.37,35.48-2.98,1.94-5.96,3.88-8.93,5.84-30.59,20.19-60.65,41.2-89.94,63.22,1.19-2.62,2.28-5.23,3.28-7.77,7.41-18.9,12.18-38.96,17.62-58.5,11.33-40.73,21.7-81.73,34.52-122.04,7.15-22.49,15-44.8,23.93-66.65,.81-1.99-2.2-3.35-3.05-1.37-16.2,37.84-28.62,77.12-40.21,116.58-5.88,20.01-11.55,40.09-17.41,60.11-5.76,19.67-11.39,39.43-18.19,58.78-3.6,10.25-7.59,20.54-13.44,29.74-.43,.68-.89,1.32-1.34,1.97-9.7,7.47-19.33,15.05-28.83,22.77-.17,.06-.35,.11-.53,.17-.72,.24-1.07,.7-1.2,1.22-.21,.17-.43,.34-.65,.52-24.02,19.6-47.35,40.07-69.84,61.43-.55,.33-1.07,.7-1.61,1.05,.11-.24,.24-.46,.35-.7,4.36-9.25,7.17-19.13,9.24-29.12,4.52-21.74,6.2-44.08,7.66-66.2,2.84-43.15,3.94-86.88,15.76-128.78,6.27-22.23,15.78-43.39,28.77-62.5,1.61-2.37-1.68-5.17-3.52-2.85-25.25,31.91-35.62,73.47-40.72,113.09-5.77,44.78-5,90.17-11.96,134.82-2.68,17.2-6.97,35.59-16.21,50.76-4.63,4.48-8.8,9.5-12.61,14.74-9.08,9.18-18,18.51-26.73,28.02-2.87,3.13-5.68,6.29-8.46,9.49-.71-.27-1.52-.21-2.28,.48-1.99,1.8-3.07,4.02-3.37,6.33-.43,.92-.37,1.84,0,2.63,.35,2.79,1.78,5.5,4.15,7.54,1.51,1.3,4.09,1.02,5.3-.56,21.11-27.59,44.35-53.36,69.26-77.46,4.33-.96,8.8-1.17,13.24-.54,8.54,1.21,16.92,4.22,25.18,6.63,37.31,10.87,74.45,22.29,111.66,33.47,20.7,6.22,41.39,12.45,62.15,18.45,2.01,.58,3.09-2.9,1.07-3.54Z"/></g></g></g></svg>