<?xml version="1.0" encoding="UTF-8"?><svg xmlns="http://www.w3.org/2000/svg" viewBox="0 0 413.07 657.87"><defs><style>.d{fill:#c53817;}.e{fill:#de842b;}</style></defs><g id="a"/><g id="b"><g id="c"><g><path class="e" d="M29.37,389.13c4.04,6.56,8.69,12.72,14.12,18.3,2.84,2.92,6.15,5.78,10.19,6.3,4.32,.55,8.43-1.67,12.37-3.53,14.82-6.99,31.74-9.46,47.94-7-7.65,12.48-23.46,16.55-36.27,23.65-27.81,15.41-13.8,54.3-3.46,76.57,18.56,39.98,17.66,20.18,52.68,9.23,4.35-1.36,9.51-1.5,13.02,1.41,8.19,6.78-.52,19.97-9.88,25.01-9.36,5.04-21.57,11.02-20.74,21.62,.26,3.33,1.91,6.37,3.71,9.19,6.05,9.48,33.1,43.79,47.45,36.52,5.89-2.98,7.81-10.75,13.28-14.43,5.14-3.46,12.94-2,16.49,3.07,3.55,5.08,2.24,12.9-2.76,16.54-6.42,4.67-19.04,6.45-16.52,13.98,.59,1.77,2.05,3.08,3.45,4.3,4.97,4.34,9.94,8.68,14.9,13.02,8.87,7.75,19.19,16,30.92,14.87,8.54-.82,15.71-6.52,22.34-11.97,15.13-12.47,30.43-25.11,42.07-40.89,11.64-15.78,19.43-35.29,17.41-54.79-26.54-5.45-45.44-35.05-39.23-61.42,3.04-1.06,6.09-2.13,9.13-3.19,16.16,4.97,30.13,16.26,46.78,19.28,46.96,8.5,79.8-86.73,27.25-104.96-15.6-5.41-32.54-4.77-48.95-6.61-16.41-1.84-33.85-7.1-43.44-20.55-1.43-2-2.68-4.26-2.79-6.71-.32-7.47,9.06-11,16.5-11.72,40.52-3.89,79.28,9.98,110.16,34.85,27.08-47.54,49.63-116.98,24.99-169.76-30.03-64.31-122.27-89.36-187.11-90.61-3.28-.06-6.58-.05-9.87,.03-38.42,.97-78.67,13.92-116.43,21.14-24.28,4.64-49.96,9.97-67.98,26.88s-23.51,49.59-4.49,65.38c6.47-5.73,14.85-10.39,23.38-9.01,8.52,1.39,15.64,11.31,11.53,18.91-4.98,9.23-18.64,6.54-28.79,9.16-12.41,3.2-20.5,15.9-22.24,28.59s1.6,25.48,5.02,37.83c5.87,21.2,12.46,42.97,23.87,61.5ZM286.95,222.26c6.32-2.18,13.13,1.05,18.86,4.49,14.61,8.78,28.01,19.56,39.73,31.94,10.45,11.04,19.86,27.84,11.5,40.53-7.3,11.09-23.97,11.24-36.11,5.86-14.98-6.63-68.12-71.01-33.97-82.82Zm-118.71,189.63c6.3,5.81,3.88,15.31-.23,21.54-4.41,6.68-10.39,11.78-17.32,15.46-1.95,1.69-4.06,3.15-6.37,4.24-6.1,2.87-14.42,2.24-18.36-3.23-4.84-6.73-.65-16.38,5.27-22.18,1.8-1.76,3.76-3.35,5.84-4.77,2.02-2.32,4.38-4.46,6.98-6.48,6.51-5.06,16.57-11.6,24.17-4.58Zm-15.81-34.5c.81-1.46,1.89-2.49,3.14-3.15,3.32-2.91,7.19-5.16,11.56-6.55,6-1.91,11,4.29,8.56,9.85-2.56,5.82-8.67,13.15-15.54,13.07-4.99,6.11-16.14,.08-11.87-7.41,1.2-2.1,2.6-4.04,4.15-5.81Zm-67.4-103.63c11.18-9.03,24.46-16.03,38.36-19.78,6.4-1.73,13.66-2.95,19.09,1.92,4.18,3.75,5.12,9.63,4,14.91-2.76,13.1-16.46,23.52-27.22,30.04-.92,.56-1.85,1.08-2.79,1.6-5.12,3.95-10.29,7.85-15.42,11.78-7.31,5.59-14.47,11.53-22,16.81-4.58,3.21-9.68,5.43-15.3,3.76-12.19-3.63-10.88-19.18-6.32-28.22,6.43-12.75,16.57-23.92,27.6-32.83Z"/><path class="d" d="M83.72,246.61c14.76-13,29.65-25.48,46.26-36.1,16.37-10.47,33.74-19.36,51.84-26.44,9.3-3.64,18.79-6.56,28.3-9.54,.74,14.22,1.12,28.46,1.06,42.73-.11,30.4-1.63,60.8-3.38,91.16-5.96,3.61-11.91,7.23-17.81,10.96-6.46,4.08-13.12,8.01-19.33,12.47-3.72,2.68-.17,8.27,3.84,6.01,6.65-3.76,13.02-8.15,19.43-12.3,4.49-2.91,8.94-5.87,13.38-8.85-.18,2.99-.35,5.98-.53,8.96-2.17,36.43-4.37,72.88-4.9,109.38-.26,18.25-.12,36.54,.69,54.79-.85-.08-1.75,.2-2.55,1.05-9.14,9.72-16.61,21.97-20.2,34.9-1.04,3.77,5.01,6.18,6.52,2.45,2.4-5.91,4.83-11.79,7.98-17.35,2.58-4.54,5.52-8.98,8.67-13.18,.84,15.11,2.16,30.19,4.17,45.19,.59,4.41,1.27,8.81,1.98,13.21,.68,4.22,7.37,4.11,6.78-.27-4.8-35.84-6.63-72.01-6.41-108.16,.12-19.32,.78-38.63,1.72-57.93,13.9,7.68,22.24,21.5,32.19,33.45,11.09,13.33,25.17,23.67,41.54,29.58,9.14,3.3,18.74,5.07,28.44,5.45,4.24,.17,3.89-6.29-.26-6.55-16.64-1.02-33.14-6.99-46.69-16.71-13.48-9.67-22.06-23.37-32.62-35.83-5.77-6.81-12.46-13.19-20.67-16.91-.53-.24-1.04-.35-1.53-.37,.77-14.68,1.69-29.36,2.65-44.04,1.2-18.29,2.5-36.57,3.68-54.87,21.79,25.29,50.77,44.6,83.01,53.6,4.24,1.18,5.61-5.25,1.54-6.58-31.16-10.16-59.35-28.37-80.44-53.59-.94-1.12-2.24-1.81-3.59-1.67,.95-15.32,1.79-30.65,2.37-45.99,.68-18.06,1.34-36.17,1.17-54.24-.01-1.17-.02-2.34-.03-3.5,34.01,4.84,67.06,15.39,97.42,31.53,8.91,4.74,17.62,9.9,26.09,15.39,3.74,2.42,6.72-3.56,3.21-6.02-29.49-20.7-63.44-35.28-98.45-43.64-9.35-2.24-18.81-3.95-28.34-5.23-.14-13.91-.42-27.79-1.72-41.67-3.34-35.81-10.31-71.45-21.83-105.55-1.55-4.58-3.33-8.68-5.82-12.83-1.66-2.76-5.44-3.73-8.26-2.35-3.18,1.55-4.06,4.54-3.47,7.85,1.56,8.87,5.06,17.28,7.65,25.91,2.52,8.4,4.78,16.87,6.79,25.41,3.99,16.97,6.8,33.75,9.05,51.04,2.43,18.72,4.24,37.48,5.39,56.29-18.96,4.35-37.48,12.03-54.88,20.56-18.01,8.83-35.15,19.47-51.05,31.7-8.91,6.85-17.65,14.12-25.4,22.28-3.3,3.47,1.91,7.99,5.36,4.95Z"/><path class="d" d="M377.79,329.99c13.61-24.19,18.13-53.21,11.93-80.33-.27-1.19-2.05-.6-1.8,.57,5.69,26.76,1.76,55.02-11.57,78.99-.51,.92,.92,1.68,1.44,.77Z"/><path class="d" d="M374,257.94c4.31,6.55,5,15.08,.91,21.94-.55,.92,.9,1.66,1.45,.77,4.41-7.04,4.41-17.04-.85-23.68-.71-.89-2.18-.02-1.52,.97Z"/><path class="d" d="M347.12,451.09c4.34-9.54,6.33-20.08,5.53-30.54-.09-1.17-1.89-1.11-1.83,.07,.52,10.17-1.19,20.29-5.23,29.66-.44,1.01,1.06,1.83,1.53,.81Z"/><path class="d" d="M333.16,431.83c3.44-5.11,4.39-11.59,2.47-17.44-.4-1.22-2.28-.62-1.9,.61,1.65,5.33,.9,11.31-2.11,16.02-.61,.96,.92,1.74,1.54,.82Z"/><path class="d" d="M95.75,441.12c3.97,14.18,8.22,28.28,12.41,42.39,.3,1.03,1.88,.52,1.59-.51-4.03-14.16-8-28.35-12.25-42.44-.34-1.13-2.06-.58-1.75,.56Z"/><path class="d" d="M83.34,458.16c3.49,10.98,7.45,21.82,11.22,32.7,.35,1,1.92,.51,1.58-.5-3.66-10.92-7.14-21.92-11.08-32.75-.4-1.09-2.08-.57-1.72,.55Z"/><path class="d" d="M239.57,597.98c12.92-4.86,24.1-14.94,29.55-27.73,.5-1.18-1.22-2.13-1.77-.94-5.75,12.21-15.64,22.07-28.29,27.04-1.02,.4-.52,2.02,.52,1.63Z"/><path class="d" d="M242.57,581.2c2.75-3.31,5.52-6.62,8.25-9.95,2.73-3.33,5.56-6.6,8.15-10.04,.74-.98-.59-2.28-1.43-1.32-2.84,3.23-5.47,6.66-8.18,10.01-2.71,3.35-5.39,6.73-8.08,10.1-.7,.88,.57,2.08,1.3,1.2Z"/><path class="d" d="M43.52,357.05c.67,.84,2.11-.05,1.43-.91-7.25-9.29-10.94-20.54-11.13-32.27-.02-1.2-1.83-1.11-1.86,.07-.23,11.93,4.12,23.84,11.56,33.11Z"/><path class="d" d="M37.91,303.82c.06,1.18,1.87,1.11,1.83-.07-.14-4.41-.27-8.83-.51-13.24-.06-1.2-1.91-1.13-1.87,.07,.12,4.41,.33,8.82,.55,13.23Z"/><path class="d" d="M183.7,281.49c4.11-22.74,4.12-47.34-2-69.76-.32-1.17-2-.58-1.77,.56,2.29,11.39,4.15,22.66,4.51,34.29,.35,11.55-.45,23.13-2.37,34.52-.18,1.06,1.44,1.44,1.63,.38Z"/><path class="d" d="M169.57,262.1c4.39-9.39,4.76-21.01-.06-30.34-.48-.94-2.1-.19-1.69,.79,3.86,9.28,4.43,19.45,.3,28.78-.43,.96,1,1.74,1.45,.77Z"/></g></g></g></svg>