<?xml version="1.0" encoding="UTF-8"?><svg xmlns="http://www.w3.org/2000/svg" viewBox="0 0 527.61 536.39"><defs><style>.d{fill:#c53817;}</style></defs><g id="a"/><g id="b"><g id="c"><path class="d" d="M228.15,236.65c-72.62-35.72-82.85-32.96-228.15,26.65,85.17,19.47,146.62-34.71,218.23-14.82-63.86,35.19-131.56,63.39-201.51,83.94,74.51,32.81,171,2.92,213.9-66.27-30.94,38.76-61.87,77.52-92.81,116.29-14.86,18.62-30.44,39.13-30.91,62.96,58.47-43.21,105.49-101.79,135.02-168.22-7.27,42.42-26.01,81.92-38.13,123.23-12.11,41.3-17.09,87.61,2.39,126,22.69-78.31,74.67-155.94,52.85-234.49,2.44,85.19,25.35,169.73,66.27,244.49,.02-83.96-16.1-167.89-47.22-245.87,42.24,66.68,103.5,121.15,174.66,155.29-33.87-80.08-101.32-145.33-182.49-176.5,77.32,38.96,164.57,57.98,251.09,54.73-13.64-24.27-43.41-33.64-70.61-39.55-59.18-12.84-119.75-19.2-180.31-18.92,88.9-22.73,175.3-55.18,257.18-96.59-91.19,7.39-180.97,31.89-263.27,71.86,58.38-60.68,148.63-101.46,166.44-183.76-67.35,44.75-126.61,101.66-174.05,167.15,37.58-68.24,57.12-146.32,56.12-224.22-32.69,60.83-61.48,124.48-80.05,191l-4.67,45.65Z"/></g></g></svg>