<?xml version="1.0" encoding="UTF-8"?><svg xmlns="http://www.w3.org/2000/svg" viewBox="0 0 638.75 412.54"><defs><style>.d{fill:#e39274;}.e{fill:#c53817;}</style></defs><g id="a"/><g id="b"><g id="c"><g><path class="d" d="M313.67,4.89c-7.47,1.91-14.73,4.52-21.67,8.05-3.63,1.85-7.35,4.15-9.04,7.86-1.81,3.96-.91,8.55-.3,12.86,2.27,16.23-.39,33.11-7.54,47.85-9.65-11.01-8.84-27.32-11.82-41.65-6.46-31.13-47.75-29.3-72.09-26.04-43.69,5.86-24.52,10.87-24.45,47.56,0,4.55-1.39,9.52-5.21,12.01-8.9,5.81-18.91-6.42-20.95-16.86-2.04-10.44-4.12-23.87-14.49-26.22-3.26-.74-6.66-.06-9.88,.81-10.85,2.96-51.64,18.61-48.96,34.47,1.1,6.51,7.95,10.64,9.84,16.97,1.77,5.94-1.93,12.95-7.83,14.83-5.9,1.88-12.98-1.69-14.98-7.55-2.56-7.52-.51-20.09-8.45-19.92-1.86,.04-3.55,1.05-5.13,2.02-5.62,3.46-11.24,6.91-16.86,10.37C13.83,88.49,2.89,95.89,.48,107.43c-1.75,8.4,1.56,16.94,4.8,24.88,7.41,18.15,14.94,36.52,26.56,52.32,11.61,15.8,27.93,29.03,47.15,32.89,13.08-23.72,46.96-32.99,70.3-19.23,.11,3.22,.22,6.44,.34,9.66-9.55,13.96-24.47,23.94-32.3,38.95-22.06,42.32,59.14,101.95,92.14,57.18,9.8-13.29,14.21-29.66,20.84-44.78,6.63-15.12,16.83-30.22,32.51-35.38,2.33-.77,4.86-1.3,7.24-.67,7.23,1.91,7.82,11.91,6.29,19.23-8.32,39.85-33.07,72.75-65.98,94.85,37.36,39.97,96.98,82.12,154.69,74.25,70.33-9.58,121.62-90.23,142.07-151.79,1.04-3.12,2-6.26,2.9-9.43,10.48-36.98,10.06-79.26,14.38-117.45,2.78-24.56,5.31-50.66-5.49-72.89-10.8-22.23-40.38-37.17-61.1-23.69,3.55,7.87,5.52,17.27,1.66,25-3.85,7.73-15.45,11.58-21.48,5.4-7.33-7.5-.72-19.74-.2-30.22,.63-12.8-9.1-24.3-20.7-29.73-11.61-5.43-24.81-6.04-37.61-6.44-21.99-.68-44.73-.85-65.82,4.54Zm82.9,295.5c.21,6.68-4.9,12.23-9.89,16.68-12.72,11.34-26.99,20.94-42.29,28.46-13.64,6.7-32.48,10.7-42.12-1.05-8.42-10.27-3.62-26.23,5.12-36.23,10.78-12.33,88.03-43.97,89.17-7.86ZM250.72,130.74c-7.42,4.29-15.77-.83-20.5-6.61-5.08-6.19-8.17-13.42-9.62-21.13-1.03-2.37-1.81-4.81-2.16-7.34-.93-6.68,2.14-14.43,8.53-16.57,7.87-2.63,15.83,4.24,19.62,11.62,1.15,2.24,2.08,4.59,2.82,6.99,1.62,2.62,2.96,5.51,4.12,8.59,2.9,7.72,6.16,19.26-2.81,24.44Zm37.64-4.86c1.15,1.2,1.82,2.54,2.07,3.93,1.79,4.03,2.79,8.4,2.82,12.98,.04,6.3-7.36,9.23-11.94,5.25-4.8-4.17-9.98-12.19-7.86-18.72-4.35-6.58,4.71-15.43,10.6-9.14,1.65,1.77,3.08,3.68,4.32,5.69Zm118.97-33.6c5.3,13.36,8.05,28.12,7.5,42.5-.25,6.62-1.23,13.92-7.5,17.66-4.83,2.88-10.72,2.03-15.43-.6-11.69-6.53-17.57-22.7-20.61-34.92-.26-1.04-.49-2.09-.7-3.14-2.25-6.07-4.44-12.15-6.67-18.23-3.17-8.64-6.72-17.24-9.52-26-1.71-5.32-2.32-10.86,.95-15.72,7.08-10.56,21.55-4.7,28.83,2.34,10.27,9.93,17.92,22.92,23.15,36.1Z"/><path class="e" d="M433.63,99.09c8.03,17.95,15.53,35.88,20.74,54.89,5.14,18.74,8.48,37.96,9.86,57.35,.71,9.96,.69,19.89,.71,29.86-13.8-3.51-27.51-7.38-41.12-11.67-29-9.13-57.58-19.6-86.04-30.29-1.68-6.76-3.37-13.52-5.18-20.26-1.98-7.38-3.75-14.91-6.18-22.16-1.45-4.35-7.84-2.62-6.87,1.88,1.61,7.47,3.92,14.85,5.98,22.21,1.44,5.15,2.95,10.28,4.48,15.4-2.8-1.06-5.6-2.11-8.4-3.17-34.14-12.89-68.3-25.81-103-37.14-17.35-5.67-34.86-10.97-52.53-15.6,.33-.79,.33-1.74-.24-2.75-6.57-11.61-16.05-22.39-27.33-29.65-3.29-2.11-7.38,2.95-4.28,5.5,4.93,4.05,9.82,8.11,14.2,12.77,3.57,3.81,6.94,7.94,10.02,12.19-14.68-3.68-29.47-6.9-44.39-9.44-4.39-.75-8.79-1.41-13.2-2.03-4.24-.6-6.11,5.82-1.76,6.56,35.65,6.05,70.73,15.05,105.19,25.98,18.42,5.85,36.66,12.21,54.81,18.84-11.46,11-27.13,14.86-41.49,20.81-16.02,6.64-30.08,17.01-40.58,30.89-5.87,7.75-10.4,16.39-13.65,25.54-1.42,4,4.85,5.58,6.33,1.69,5.92-15.59,16.52-29.57,29.82-39.62,13.24-10,28.87-14.13,43.9-20.51,8.21-3.49,16.29-7.98,22.29-14.72,.38-.43,.64-.89,.8-1.35,13.79,5.1,27.54,10.33,41.26,15.6,17.11,6.57,34.18,13.25,51.3,19.8-30.61,13.3-57.66,35.24-75.83,63.36-2.39,3.69,3.35,6.91,5.83,3.42,18.95-26.74,44.71-48.26,75.05-60.91,1.35-.56,2.39-1.6,2.66-2.93,14.35,5.46,28.74,10.81,43.22,15.92,17.04,6.01,34.14,12.01,51.45,17.22,1.12,.34,2.24,.67,3.36,1.01-14.72,31.04-34.61,59.47-59.03,83.67-7.17,7.1-14.69,13.89-22.45,20.34-3.42,2.85,1.4,7.47,4.8,4.85,28.52-22.02,52.52-50.11,70.89-81.06,4.91-8.27,9.36-16.79,13.41-25.51,13.32,3.99,26.67,7.84,40.3,10.73,35.19,7.44,71.29,11.37,107.28,10.48,4.83-.12,9.28-.6,13.98-1.75,3.13-.76,5.17-4.08,4.69-7.19-.54-3.5-3.13-5.22-6.47-5.65-8.93-1.14-18-.3-27.01-.38-8.77-.08-17.53-.44-26.28-1.06-17.39-1.23-34.25-3.53-51.42-6.51-18.6-3.23-37.05-7.08-55.35-11.56,1.47-19.4-.36-39.36-3.35-58.51-3.09-19.82-8.16-39.34-15.12-58.16-3.9-10.54-8.25-21.04-13.73-30.87-2.34-4.19-8.19-.55-6.32,3.65Z"/><path class="e" d="M266.73,355.16c19.06,20.18,45.43,33.11,73.17,35.24,1.22,.09,1.19-1.78-.01-1.89-27.24-2.51-53.07-14.66-72-34.49-.73-.76-1.88,.38-1.16,1.15Z"/><path class="e" d="M336.65,372.93c-7.53,2.17-15.88,.3-21.22-5.64-.71-.79-1.85,.36-1.17,1.16,5.41,6.3,14.96,9.27,22.87,6.22,1.06-.41,.66-2.07-.48-1.74Z"/><path class="e" d="M160.18,289.92c7.82,6.98,17.3,12.01,27.52,14.35,1.14,.26,1.62-1.48,.47-1.77-9.87-2.53-19.02-7.16-26.77-13.8-.84-.72-2.07,.47-1.23,1.22Z"/><path class="e" d="M182.72,282.31c3.86,4.8,9.76,7.63,15.92,7.54,1.28-.02,1.27-1.99-.01-1.99-5.58,0-11.07-2.49-14.67-6.77-.73-.87-1.94,.37-1.24,1.23Z"/><path class="e" d="M244.32,52.84c-14.72-.41-29.44-.55-44.16-.74-1.07-.01-1.06,1.64,.01,1.66,14.72,.36,29.44,.77,44.17,.9,1.18,.01,1.17-1.8-.01-1.83Z"/><path class="e" d="M231.73,35.93c-11.52,.08-23.04,.64-34.56,1.01-1.06,.03-1.06,1.68,.01,1.66,11.52-.25,23.05-.31,34.56-.86,1.16-.05,1.16-1.82-.01-1.81Z"/><path class="e" d="M51.84,143.62c.8,13.78,7.12,27.45,17.71,36.45,.97,.83,2.39-.53,1.43-1.41-9.96-9.11-16.44-21.49-17.43-35.05-.08-1.09-1.78-1.1-1.71,.01Z"/><path class="e" d="M66.97,151.46c2.35,3.61,4.68,7.23,7.05,10.83,2.37,3.59,4.65,7.27,7.17,10.76,.72,1,2.36,.12,1.69-.98-2.24-3.67-4.74-7.2-7.13-10.78-2.4-3.58-4.83-7.14-7.25-10.71-.63-.93-2.15-.08-1.53,.88Z"/><path class="e" d="M340.1,27.93c-1,.39-.58,2.03,.45,1.64,11.02-4.17,22.86-4.35,34.12-1.05,1.15,.34,1.61-1.42,.48-1.79-11.33-3.76-23.99-3.14-35.05,1.21Z"/><path class="e" d="M392.6,38.37c-1.14-.3-1.61,1.45-.47,1.77,4.26,1.18,8.51,2.36,12.79,3.45,1.17,.3,1.65-1.48,.48-1.81-4.25-1.2-8.53-2.3-12.8-3.41Z"/><path class="e" d="M370.65,184.22c20.5,10.67,43.98,17.99,67.21,18.8,1.22,.04,1.15-1.74-.01-1.86-11.55-1.2-22.87-2.76-34.09-5.88-11.13-3.09-21.95-7.3-32.26-12.51-.96-.48-1.8,.94-.85,1.44Z"/><path class="e" d="M393.36,176.48c7.67,6.98,18.65,10.79,29,8.95,1.04-.18,.81-1.95-.26-1.85-10,.93-19.89-1.54-27.57-8.26-.79-.69-1.96,.44-1.17,1.16Z"/></g></g></g></svg>