<?xml version="1.0" encoding="UTF-8"?><svg xmlns="http://www.w3.org/2000/svg" viewBox="0 0 394.14 494.02"><defs><style>.d{fill:#fff;}</style></defs><g id="a"/><g id="b"><g id="c"><path class="d" d="M32.31,276.59c11.06,7.4,26.09,10.83,37.64,4.22,18.61-10.65,17.75-39.38,34-53.37,6.46-5.57,18.94-6.5,21.48,1.65,.91,2.92,.14,6.09-.79,9.01-7.32,23.14-24.25,43.07-45.91,54.01-8.1,4.09-17.81,8.05-20.39,16.75-1.23,4.15-.5,8.6,.36,12.84,4.79,23.63,11.24,59.6,28.1,77.87,30.41,32.94,31.28-1.36,51.16-25.01,8.63-10.27,28.03-14.12,33.65-1.94,4.97,10.76-5.66,21.89-15.13,29.01-11.1,8.34-22.2,16.69-33.29,25.03-1.04,9.4,9.51,16.7,18.94,16.16,9.44-.54,17.66-6.28,25.49-11.56,7.84-5.29,16.58-10.52,26.01-9.84,4.59,8.78-5.7,17.74-14.54,22.21-8.84,4.47-19.43,12.73-15.57,21.85,1.4,3.31,4.47,5.56,7.41,7.63,19.74,13.87,44.84,27.58,66.69,17.35,11.55-5.41,19.25-16.46,26.39-27.02,5.21-7.7,10.56-15.75,11.9-24.95,1.35-9.2-2.58-19.88-11.25-23.23-5.34-2.06-11.57-1.1-16.71-3.61-9.83-4.82-10.08-18.51-8.88-29.4,15.26,10.04,32.18,17.56,49.86,22.17,5.46,1.42,11.38,2.54,16.62,.44,6.28-2.52,9.94-8.97,12.82-15.09,10.64-22.56,17.43-46.93,20-71.74-12.55,2.8-25.42,5.62-38.16,3.89-12.74-1.73-25.53-8.98-30.21-20.95,24.62-2.31,49.39-3.08,74.11-2.29,3.22-10.65,6.45-21.3,9.67-31.95-4.77-11.16-23.16-5.71-32.3-13.7-8.31-7.27-2.96-22.88,7.58-26.18,10.15-3.18,21.62,3.41,28.11,10.56,14.03-39.95,38.84-59.82,36.82-107.93C389.54,22.97,279.21-5.47,189.51,.83c-3.35,.23-6.7,.54-10.05,.93-38.68,4.45-76.64,18.99-105.32,45.18C27.21,89.79-41.16,227.43,32.31,276.59ZM272.85,90.91c6.27-2.72,13.47,.04,19.58,3.11,15.58,7.81,30.09,17.76,43,29.47,11.52,10.44,22.43,26.84,14.89,40.44-6.58,11.88-23.57,13.33-36.37,8.8-15.79-5.59-75.01-67.1-41.11-81.81Zm-106.26,202.64c6.87,5.43,5.15,15.31,1.45,21.99-3.97,7.16-9.68,12.83-16.45,17.11-1.86,1.87-3.9,3.53-6.17,4.82-6,3.4-14.53,3.41-18.97-1.86-5.47-6.49-1.94-16.65,3.65-23.03,1.7-1.94,3.58-3.71,5.58-5.32,1.88-2.52,4.12-4.89,6.62-7.16,6.24-5.67,15.99-13.12,24.29-6.55Zm-18.82-33.95c.71-1.55,1.73-2.69,2.96-3.45,3.16-3.22,6.93-5.82,11.28-7.58,5.97-2.41,11.55,3.52,9.49,9.37-2.15,6.13-7.82,14.09-14.83,14.54-4.61,6.62-16.45,1.35-12.68-6.63,1.06-2.24,2.34-4.32,3.78-6.25Zm-76.82-100.42c10.7-10.08,23.7-18.25,37.58-23.16,6.39-2.26,13.7-4.08,19.62,.47,4.56,3.5,5.97,9.42,5.25,14.9-1.79,13.57-14.95,25.27-25.42,32.76-.89,.64-1.8,1.25-2.72,1.85-4.92,4.43-9.88,8.81-14.81,13.22-7.02,6.27-13.85,12.89-21.12,18.86-4.42,3.63-9.45,6.3-15.3,5.03-12.71-2.75-12.6-18.71-8.65-28.29,5.56-13.51,15.03-25.68,25.59-35.63Z"/></g></g></svg>