<?xml version="1.0" encoding="UTF-8"?><svg xmlns="http://www.w3.org/2000/svg" viewBox="0 0 489.83 420.65"><defs><style>.d{fill:#fff;}</style></defs><g id="a"/><g id="b"><g id="c"><path class="d" d="M214.08,278.51c-1.33,24.7,22.62,55.36,51.71,76.25,29.09,20.88,62.98,36.96,84.1,65.89-33.01-54.85-75.07-104.24-123.98-145.54,64.4,30.53,130.89,56.66,198.84,78.14-46.93-55.04-121-76.91-190.74-96.1,51.07,11.03,103.75-4.04,153.82-18.97,34-10.14,68-20.29,102.01-30.43-84.65-15.33-174.14-2.65-251.2,35.6,70.25-44.55,125.53-112.28,155.08-190.03-65.22,47.78-113.86,114.26-161.42,179.63,24.98-75.47,41.35-153.79,48.69-232.94-38.73,69.48-59.38,148.94-59.4,228.49-25.49-73.62-60.98-143.77-105.2-207.91-12.07,82.27,33.92,160.68,78.09,231.13-46.91-55.47-100.98-104.87-160.45-146.6,44.56,57.79,96.36,109.99,153.82,154.97C131.05,224.13,66.55,200.46,0,191.13c61.68,39.1,130.47,66.96,201.98,81.78-45.67,1.46-91.28,4.8-136.67,10,40.35,11.53,84,25.95,124.45,14.76,13.54-3.75,24.33-19.16,24.33-19.16Z"/></g></g></svg>