<?xml version="1.0" encoding="UTF-8"?><svg xmlns="http://www.w3.org/2000/svg" viewBox="0 0 2257.54 1121.83"><defs><style>.d{fill:#f3d3be;}</style></defs><g id="a"/><g id="b"><g id="c"><path class="d" d="M1930.13,0c-143.44,0-286.61,17.13-423.71,63.07-96.89,32.47-167.72,89.75-253.77,142.87-137.57,84.92-300.45,114.09-459.06,141.69-14.28,2.49-29.43,4.89-42.9-.55-13.47-5.44-23.74-21.88-17.45-35.16,3.54-7.46,11.16-11.97,18.72-15.05,51.77-21.06,124.63-.23,155.39-47.53,3.89-5.99,6.74-13.18,5.52-20.26-2.36-13.73-17.98-20.22-31.53-22.31-82.91-12.81-158.15,44.62-229.53,89.41-151.12,94.82-325.41,142.38-495.62,193.8-31.73,9.58-64.17,19.73-90.45,40.19-26.28,20.46-45.51,53.7-40.4,86.96,5.44,35.43,37.76,62.22,72.35,69.16,28.41,5.7,68.58,9.53,69.85,38.95,.45,10.41-5.23,19.99-11.1,28.53-35.52,51.64-85.31,91.95-119.86,144.27-34.54,52.32-54.61,128.99-14.09,176.67,63.51,74.73,160.39,46.78,252.21,10.24,142.76-56.82,272.43-111.51,417.06-163.21,122.3-43.72,278.89-93.86,410.46-81.25,8.79,.84,19.28,3.59,21.79,12.19,2.6,8.89-5.27,17.15-12.6,22.68-53.71,40.53-119.35,60.54-183.71,78.99-51.99,14.91-107.73,31.63-141.29,74.68-3.83,4.91-7.43,10.45-7.81,16.71-.71,11.7,9.86,20.84,20.29,25.85,42.14,20.26,91.64,5.96,136.28-7.67,88.93-27.16,178.96-50.62,269.77-70.3,103.61-22.46,208.7-40.12,308.77-75.49,52.92-18.7,104.17-42.29,152.91-70.38,9.83-5.66,20.44-12.67,23.09-23.84,4.93-20.73-20.94-35.71-41.89-35.02-20.96,.69-42.8,8.79-62.22,.77-7.61-3.14-14.81-9.89-14.64-18.24,.2-9.87,10.03-16.33,18.9-20.35,44.73-20.3,94.39-25.46,142.63-34.13,110.51-19.87,235.07-58.75,333.47-113.48,128.76-71.61,213.82-226.76,186.43-373.4C2225.01,83.45,2076.88,0,1930.13,0Z"/></g></g></svg>