<?xml version="1.0" encoding="UTF-8"?><svg xmlns="http://www.w3.org/2000/svg" viewBox="0 0 2305.99 1121.83"><defs><style>.d{fill:#f3d3be;}</style></defs><g id="a"/><g id="b"><g id="c"><path class="d" d="M1990.23,0c-150.3,0-279.02,3.53-422.66,48.84-101.52,32.02-187.64,99.21-277.81,151.6-144.14,83.75-268.36,103.02-434.55,130.24-14.97,2.45-30.83,4.82-44.95-.54-14.11-5.36-24.88-21.58-18.28-34.68,3.71-7.36,11.69-11.81,19.62-14.84,54.24-20.77,135.7,15.3,167.93-31.34,4.08-5.91,7.06-13,5.79-19.98-2.47-13.54-18.83-19.94-33.03-22.01-86.87-12.64-165.71,44.01-240.5,88.18-158.34,93.51-316.82,125.26-496.51,171.55-102.69,26.45-154.07,21.54-181.6,41.72-27.54,20.18-37.63,45.86-32.28,78.66,5.7,34.94,32.13,59.17,68.37,66.02,29.76,5.63,75.92,19.29,92.13,44,7.22,11.02,17.14,38.27,16.76,48.49-2.12,56.62-6.19,99.79-42.39,151.39-36.19,51.6-57.22,127.21-14.76,174.24,66.54,73.71,173.46,56.93,264.26,10.1,105.03-54.17,140.43-117.13,317.61-170.91,129.51-39.31,326.64-120.58,464.5-108.15,9.21,.83,20.2,3.54,22.83,12.03,2.72,8.77-5.05,17.57-13.2,22.37-35.49,20.91-68.47,24.11-135.91,42.31-54.47,14.7-112.88,31.2-148.04,73.65-4.01,4.84-7.78,10.31-8.18,16.48-.74,11.54,10.34,20.56,21.26,25.5,44.15,19.98,95.7,8.38,144.41,4.23,110.02-9.38,163.53-31.01,258.68-50.42,108.56-22.15,193.33-46.42,298.18-81.3,55.45-18.45,68.77-21.74,119.84-49.44,10.3-5.59,21.42-12.49,24.2-23.51,5.16-20.45-21.94-35.22-43.9-34.53-21.96,.68-40.45,.63-66.51-14.98-7.28-4.36-13.79-14.89-13.62-23.13,.21-9.74,15.91-16.21,25.2-20.18,46.87-20.02,98.9-25.11,149.44-33.66,115.79-19.59,202.41-44.22,305.51-98.2,134.91-70.62,221.12-212.52,192.41-357.14C2271.77,68.04,2144,0,1990.23,0Z"/></g></g></svg>