<?xml version="1.0" encoding="UTF-8"?><svg xmlns="http://www.w3.org/2000/svg" viewBox="0 0 2305.99 1121.83"><defs><style>.d{fill:#f3d3be;}</style></defs><g id="a"/><g id="b"><g id="c"><path class="d" d="M1988.7,0c-151.57,0-278.86,16.49-423.72,60.43-102.38,31.05-189.23,117-280.17,167.81-145.36,81.22-274.04,132.32-441.64,158.71-15.09,2.38-31.1,4.68-45.33-.52-14.23-5.2-25.09-20.93-18.44-33.63,3.74-7.14,11.79-11.45,19.78-14.39,54.7-20.14,63.1-11.03,94.73-38.23,5.47-4.71,9.06-27.06,7.77-33.82-2.49-13.13-18.99-19.34-33.31-21.34-87.61-12.26-99.37,42.87-174.79,85.7-159.68,90.69-295.28,125.55-476.5,170.44-103.56,25.66-155.37,20.89-183.14,40.46-27.77,19.57-37.95,44.48-32.56,76.29,5.75,33.89,32.4,57.38,68.95,64.03,30.02,5.46,95.9,17.05,112.24,41.02,7.29,10.69,14.95,34.04,14.57,43.95-2.13,54.91-115.85,87.14-152.35,137.18-36.5,50.04-57.7,123.37-14.89,168.98,67.11,71.48,174.93,55.21,266.5,9.79,105.92-52.53,219.7-135.24,398.39-187.4,130.61-38.13,311.33-110.43,450.36-98.38,9.29,.81,20.37,3.43,23.03,11.66,2.75,8.51-5.09,17.04-13.31,21.7-35.79,20.28-98.14,8.03-166.16,25.68-54.93,14.26-113.84,30.25-149.29,71.43-4.04,4.7-7.85,10-8.25,15.98-.75,11.2,10.42,19.94,21.44,24.73,44.53,19.38,96.52,8.13,145.64,4.1,110.95-9.09,226.48-27.16,318.01-59.33,116.2-40.84,145.65-60.43,260.96-91.19,56.89-15.18,157.71,4.05,209.22-22.82,10.39-5.42,21.6-12.12,24.4-22.8,5.2-19.83-22.12-34.15-44.27-33.49-22.15,.66-82.5,6.6-108.78-8.54-7.34-4.23-13.91-14.45-13.73-22.43,.21-9.44,16.04-15.72,25.41-19.57,47.27-19.42,161.45-25.43,211.2-38.45,120.51-31.54,180.05-56.51,251.25-97.79,127.57-73.95,196.45-221.22,167.5-361.48C2270.49,54.22,2143.77,0,1988.7,0Z"/></g></g></svg>