<?xml version="1.0" encoding="UTF-8"?><svg xmlns="http://www.w3.org/2000/svg" viewBox="0 0 2305.99 1121.83"><defs><style>.d{fill:#f3d3be;}</style></defs><g id="a"/><g id="b"><g id="c"><path class="d" d="M1964.38,0c-149.67,0-290.03,17.41-433.07,62.69-101.09,32-174.99,88.47-264.78,140.83-143.53,83.7-242.61,110.56-408.11,137.76-14.9,2.45-30.7,4.82-44.76-.54-14.05-5.36-24.77-21.57-18.21-34.66,3.69-7.35,11.64-11.8,19.53-14.83,54.01-20.76,99.64-15.86,131.73-62.48,4.06-5.9,7.03-12.99,5.76-19.97-2.46-13.54-18.76-19.93-32.89-21.99-86.51-12.63-165.01,43.99-239.49,88.13-157.68,93.46-339.52,140.35-517.12,191.03-33.1,9.45-92.55,21.4-119.97,41.57-27.42,20.17-47.48,52.94-42.15,85.72,5.67,34.92,39.4,61.33,75.49,68.18,29.64,5.62,90.07,48.01,91.38,77.01,.47,10.26-5.46,19.7-11.59,28.12-37.06,50.91-81.93,83.1-117.97,134.67-36.04,51.57-56.98,127.14-14.7,174.14,66.26,73.67,167.35,46.11,263.15,10.09,148.95-56.01,297.3-165.15,448.21-216.11,127.6-43.09,320.52-77.17,457.81-64.75,9.17,.83,20.11,3.54,22.74,12.02,2.71,8.77-5.5,16.91-13.15,22.36-56.04,39.95-139.72,57.82-206.88,76.01-54.24,14.69-112.41,31.18-147.42,73.61-3.99,4.84-7.75,10.3-8.14,16.47-.74,11.54,10.29,20.55,21.17,25.48,43.97,19.97,95.62,5.87,142.2-7.57,92.79-26.77,159.33-41.19,254.08-60.59,108.11-22.14,217.76-39.55,322.17-74.41,55.22-18.44,91.3-37.68,142.16-65.36,10.26-5.58,21.33-12.49,24.1-23.5,5.14-20.43-21.85-35.2-43.71-34.52-21.87,.68-27.27,4.66-47.54-3.25-7.94-3.1-15.45-9.75-15.27-17.98,.21-9.73,10.47-16.1,19.72-20.06,46.67-20.01,98.48-25.1,148.81-33.64,115.31-19.58,195.78-40.9,298.45-94.85,134.34-70.59,223.1-223.52,194.52-368.06C2272.05,82.25,2117.49,0,1964.38,0Z"/></g></g></svg>